<svg width="89" height="88" viewBox="0 0 89 88" fill="none" xmlns="http://www.w3.org/2000/svg">
<path d="M46.3719 13.2764L69.3906 20.5716C69.7621 20.6894 70.0305 21.0091 70.0732 21.3964C70.5187 25.4427 72.6287 47.9382 65.9996 60C60.7092 69.6261 48.3414 76.5029 45.9165 77.7841C45.6503 77.9248 45.3439 77.9292 45.0723 77.7991C42.481 76.5576 28.8111 69.6645 23.4996 60C16.8877 47.9694 18.56 25.5591 18.9354 21.4282C18.972 21.0254 19.2527 20.6905 19.6409 20.5768L44.622 13.2572C45.1942 13.0896 45.8034 13.0962 46.3719 13.2764Z" stroke="#2E5235" stroke-width="4" stroke-linecap="round"/>
<path d="M37.0002 42.8125L43.23 49.0424C43.3315 49.1438 43.4973 49.1392 43.5931 49.0323L57.5 33.5" stroke="#2E5235" stroke-width="4" stroke-linecap="round"/>
</svg>
