<svg width="77" height="79" viewBox="0 0 77 79" fill="none" xmlns="http://www.w3.org/2000/svg">
<path d="M39.3719 2.14014L62.3906 9.4354C62.7621 9.55312 63.0305 9.87285 63.0732 10.2602C63.5187 14.3065 65.6287 36.802 58.9996 48.8638C53.7092 58.4899 41.3414 65.3666 38.9165 66.6479C38.6503 66.7885 38.3439 66.793 38.0723 66.6629C35.481 65.4214 21.8111 58.5282 16.4996 48.8638C9.88774 36.8332 11.56 14.4229 11.9354 10.292C11.972 9.88914 12.2527 9.55431 12.6409 9.44058L37.622 2.12099C38.1942 1.95332 38.8034 1.95999 39.3719 2.14014Z" stroke="#2E5235" stroke-width="4" stroke-linecap="round"/>
<path d="M39.3719 2.14014L62.3906 9.4354C62.7621 9.55312 63.0305 9.87285 63.0732 10.2602C63.5187 14.3065 65.6287 36.802 58.9996 48.8638C53.7092 58.4899 41.3414 65.3666 38.9165 66.6479C38.6503 66.7885 38.3439 66.793 38.0723 66.6629C35.481 65.4214 21.8111 58.5282 16.4996 48.8638C9.88774 36.8332 11.56 14.4229 11.9354 10.292C11.972 9.88914 12.2527 9.55431 12.6409 9.44058L37.622 2.12099C38.1942 1.95332 38.8034 1.95999 39.3719 2.14014Z" stroke="black" stroke-opacity="0.2" stroke-width="4" stroke-linecap="round"/>
<path d="M30.0002 31.6763L36.23 37.9061C36.3315 38.0076 36.4973 38.003 36.5931 37.8961L50.5 22.3638" stroke="#2E5235" stroke-width="4" stroke-linecap="round"/>
</svg>
