<svg width="115" height="113" viewBox="0 0 115 113" fill="none" xmlns="http://www.w3.org/2000/svg">
<path d="M113.471 75.4602C112.735 78.255 110.765 79.9025 108.412 81.3734C98.7059 87.522 89.0294 93.7001 79.3824 99.9663C76.9118 101.555 74.4706 101.937 71.6471 101.202C61.9706 98.6425 52.2647 96.2301 42.5588 93.7295C40.9706 93.3176 39.5294 93.4941 38.1176 94.3473C36.9706 95.0533 35.7941 95.73 34.5588 96.4655C35.0882 97.3186 35.5882 98.1129 36.0882 98.9367C36.8529 100.143 36.7647 100.555 35.6176 101.261C30.9706 104.232 26.3235 107.174 21.6765 110.116C20.5 110.851 20.1176 110.763 19.3529 109.586C13.2941 100.055 7.20588 90.4934 1.14706 80.9615C0.941176 80.6674 0.735294 80.3732 0.5 80.079C0.5 79.7848 0.5 79.4906 0.5 79.1964C0.882353 78.9022 1.23529 78.5786 1.61765 78.3432C6.14706 75.4602 10.6765 72.5771 15.1765 69.694C16.6471 68.7526 16.9118 68.8114 17.8529 70.3412C18.4118 71.2238 19 72.1358 19.5882 73.0772C22.0588 71.4591 24.4412 69.8999 26.8235 68.3113C29.8529 66.3108 32.9118 64.3397 35.9412 62.3098C38.0588 60.8977 40.2941 60.5446 42.7647 61.2801C54.9412 64.8692 67.1471 68.3996 79.3235 71.9593C82.1471 72.783 83.7647 74.6658 84.3235 77.6372C84.7353 77.4312 85.0588 77.2841 85.4118 77.1076C90.9118 74.1363 96.3824 71.165 101.882 68.1936C107.088 65.3694 111.588 67.1934 113.294 72.8713C113.294 72.9301 113.382 72.9889 113.441 73.0478V75.4896L113.471 75.4602ZM33.3529 94.5826C34.5294 93.906 35.6765 93.3176 36.7353 92.6115C38.8529 91.2288 41.0588 91.0229 43.4706 91.6407C53.2353 94.1708 63.0294 96.642 72.7941 99.172C74.5882 99.6427 76.1765 99.378 77.7353 98.3777C88.0588 91.7584 98.3824 85.1391 108.706 78.5198C111.265 76.8723 112 74.0775 110.559 71.6651C109.029 69.0762 106.265 68.3407 103.529 69.8411C97.3235 73.1949 91.1177 76.5487 84.9412 79.9319C84.4412 80.1966 83.9706 80.6968 83.7059 81.2263C82.353 83.874 79.6176 85.3156 76.6471 84.786C73.5294 84.2271 70.4412 83.5799 67.353 82.962C63.3235 82.1677 59.2941 81.3734 55.2647 80.5497C54.2353 80.3437 53.8529 79.6671 54.2353 78.9316C54.5882 78.2256 55.2059 78.3138 55.8529 78.4315C62.9118 79.8436 69.9706 81.2263 77.0294 82.609C79.2647 83.0503 81.3235 81.7264 81.9412 79.52C82.6471 77.1076 81.3529 74.8718 78.7647 74.1069C66.5588 70.5177 54.3235 66.958 42.1176 63.3689C40.3529 62.8393 38.7353 63.1335 37.2059 64.1632C33.5588 66.605 29.8529 69.0174 26.1765 71.4591C24.4412 72.6065 22.6765 73.7538 20.8529 74.96C25.0294 81.5205 29.1471 88.0222 33.3529 94.5826ZM3.14706 79.9907C9.11765 89.3754 15.0294 98.6425 20.9706 107.998C25.3529 105.203 29.6471 102.467 33.9706 99.7016C28 90.3169 22.0882 81.0204 16.1471 71.7239C11.7941 74.4893 7.5 77.2253 3.14706 79.9907Z" fill="#2E5235" stroke="#2E5235"/>
<path d="M78.794 63.8983C77.6176 63.8983 76.4411 63.8983 75.2646 63.8983C74.3529 63.8983 73.8235 63.5747 73.6764 62.6039C73.4411 61.0447 73.1764 59.4855 72.8234 57.9557C72.7352 57.5732 72.3234 57.1025 71.9411 56.926C70.2646 56.1611 68.5882 55.455 66.8823 54.8078C66.5293 54.6607 65.9411 54.6901 65.647 54.8666C64.3529 55.6904 63.0882 56.573 61.8529 57.5144C60.9999 58.1616 60.3234 58.1322 59.5587 57.3379C57.9705 55.661 56.3234 54.0429 54.647 52.4249C53.9117 51.7188 53.794 51.0716 54.4411 50.2184C55.3529 48.9828 56.2058 47.6884 57.1176 46.4528C57.4705 45.9821 57.4999 45.629 57.2352 45.0701C56.4705 43.3932 55.8529 41.6869 55.0882 40.01C54.9117 39.6275 54.4705 39.2156 54.0587 39.1274C52.5293 38.7744 50.9705 38.539 49.4117 38.2742C48.5293 38.1271 48.147 37.6858 48.147 36.7738C48.147 34.3026 48.147 31.8608 48.147 29.3896C48.147 28.5659 48.4705 28.0952 49.3234 27.9775C50.8823 27.7422 52.4411 27.3891 53.9999 27.1538C54.6176 27.0655 54.9117 26.8302 55.147 26.2124C55.7646 24.506 56.5587 22.8291 57.2058 21.1228C57.3529 20.7698 57.3234 20.1814 57.1176 19.8578C56.2646 18.5339 55.3529 17.2395 54.4117 15.9745C53.8234 15.1802 53.9117 14.5329 54.6176 13.8563C56.3234 12.1794 58.0293 10.5025 59.6764 8.79619C60.3234 8.11955 60.9705 8.09014 61.7058 8.61968C62.9705 9.56109 64.2646 10.4731 65.5882 11.3262C65.9411 11.5322 66.5293 11.5616 66.9411 11.4145C68.6176 10.7967 70.2352 10.0318 71.9411 9.414C72.5587 9.17864 72.8234 8.91387 72.9117 8.26665C73.147 6.70743 73.4705 5.14821 73.7352 3.589C73.8823 2.76526 74.294 2.38281 75.147 2.38281C77.647 2.38281 80.147 2.38281 82.647 2.38281C83.4999 2.38281 83.9117 2.79468 84.0587 3.61842C84.3234 5.17763 84.6176 6.73685 84.8529 8.29607C84.9411 8.91387 85.2058 9.20806 85.8234 9.414C87.4999 10.0318 89.147 10.7379 90.794 11.4733C91.3234 11.7087 91.7058 11.7381 92.1764 11.3851C93.4705 10.4142 94.8234 9.53167 96.147 8.59026C96.8529 8.09013 97.4117 8.14897 97.9999 8.73736C99.7352 10.4731 101.471 12.2382 103.235 13.974C103.853 14.5918 103.941 15.1802 103.412 15.9156C102.471 17.1807 101.618 18.5045 100.676 19.799C100.294 20.2991 100.265 20.6815 100.559 21.2699C101.323 22.8586 102 24.4766 102.588 26.1241C102.823 26.7713 103.088 27.0949 103.765 27.1832C105.323 27.3891 106.882 27.7422 108.441 28.0069C109.294 28.154 109.647 28.6247 109.647 29.419C109.647 31.9197 109.647 34.4203 109.647 36.9209C109.647 37.6858 109.265 38.1271 108.5 38.2742C106.971 38.539 105.471 38.8626 103.941 39.0685C103.206 39.1862 102.823 39.451 102.588 40.2159C102.029 41.834 101.353 43.4226 100.618 44.9818C100.323 45.5996 100.353 46.0115 100.735 46.541C101.647 47.7766 102.5 49.0711 103.412 50.3361C103.971 51.101 103.882 51.7188 103.206 52.366C101.5 54.0429 99.794 55.7198 98.147 57.4261C97.4411 58.1322 96.8235 58.191 96.0293 57.6026C94.7646 56.6612 93.4705 55.7492 92.147 54.8961C91.8234 54.6901 91.2646 54.6901 90.9117 54.8372C89.2058 55.4845 87.4999 56.1905 85.8529 56.9554C85.4705 57.1319 85.0587 57.5732 84.9411 57.9557C84.5882 59.4855 84.3234 61.0447 84.0882 62.6039C83.9411 63.5453 83.4117 63.9278 82.4999 63.8983C81.294 63.8983 80.0881 63.8983 78.8529 63.8983H78.794ZM101.118 50.9833C100.235 49.6889 99.294 48.3062 98.294 46.9529C97.7352 46.2174 97.7352 45.5996 98.147 44.7464C99.0882 42.7459 99.9411 40.6572 100.706 38.5684C101.029 37.6858 101.441 37.2151 102.353 37.0975C104.029 36.8621 105.676 36.5385 107.353 36.2149V30.0369C105.647 29.7427 104 29.3896 102.323 29.1543C101.382 29.0072 101 28.5071 100.676 27.6539C99.9117 25.5651 99.0587 23.5058 98.1176 21.4759C97.7352 20.6815 97.7058 20.0637 98.2352 19.3577C99.2646 17.975 100.206 16.5629 101.118 15.239C99.6176 13.7386 98.1764 12.2971 96.7352 10.8555C95.4117 11.7675 93.9999 12.7089 92.647 13.7092C91.8823 14.2682 91.2646 14.2093 90.4411 13.7975C88.4999 12.856 86.4999 12.0029 84.4705 11.2968C83.4411 10.9438 82.9411 10.5025 82.794 9.44342C82.5882 7.82536 82.2352 6.20731 81.9411 4.64809H75.7646C75.4705 6.38382 75.147 8.0313 74.8823 9.70819C74.7646 10.5613 74.3235 10.9438 73.5293 11.238C71.4117 12.0323 69.294 12.8855 67.2646 13.8269C66.4117 14.2093 65.794 14.2387 65.0587 13.6798C63.7058 12.6795 62.294 11.7381 60.9999 10.8261C59.4999 12.2971 58.0882 13.7386 56.5882 15.2096C57.4411 16.4452 58.294 17.7985 59.2646 19.0341C59.9999 19.9755 59.9705 20.7404 59.4411 21.8289C58.4999 23.6823 57.7352 25.624 57.0587 27.5951C56.7352 28.5659 56.294 29.0366 55.2646 29.1837C53.647 29.3896 52.0293 29.7427 50.4117 30.0663V36.2443C52.1176 36.5385 53.794 36.8621 55.4411 37.1269C56.3234 37.274 56.7058 37.7153 57.0293 38.539C57.8234 40.6572 58.6764 42.7459 59.6176 44.8053C59.9705 45.5702 60.0293 46.1586 59.5293 46.8352C58.4999 48.2179 57.5587 49.6595 56.6764 50.9245C58.1764 52.4249 59.6176 53.8664 61.0882 55.3374C62.3234 54.4842 63.7058 53.5722 65.0293 52.572C65.8234 51.9836 66.4411 52.013 67.3234 52.4543C69.294 53.3957 71.3529 54.2194 73.4117 54.9549C74.2646 55.2785 74.7646 55.6315 74.9117 56.6024C75.147 58.3087 75.4999 59.9856 75.794 61.6625H81.9411C82.2352 59.9856 82.5587 58.3381 82.8234 56.6612C82.9705 55.7492 83.4117 55.3079 84.294 54.9843C86.3823 54.2194 88.4705 53.3957 90.4705 52.4249C91.3234 52.013 91.9411 51.9836 92.6764 52.5425C94.0293 53.5428 95.4411 54.4842 96.7352 55.3962C98.2058 53.9252 99.647 52.4837 101.118 50.9833Z" fill="#2E5235" stroke="#2E5235"/>
<path d="M78.8235 48.5709C70.3823 48.5709 63.4117 41.6574 63.3823 33.2435C63.3823 24.6237 70.2353 17.6808 78.7647 17.6514C87.3529 17.6514 94.2647 24.506 94.2941 33.0964C94.2941 41.6868 87.4411 48.5709 78.8235 48.5709ZM92.0882 33.2435C92.147 25.8887 86.2941 19.9166 78.9706 19.8578C71.7059 19.799 65.647 25.7122 65.5882 32.8905C65.5294 40.3336 71.3823 46.3351 78.7353 46.3645C86.1176 46.3939 92.0588 40.5689 92.0882 33.2435Z" fill="#2E5235"/>
<path d="M78.9668 20.3574C86.0096 20.4141 91.615 26.1563 91.5879 33.2393C91.5313 40.2871 85.8465 45.8926 78.7373 45.8643C71.7777 45.8364 66.208 40.2455 66.0898 33.2295L66.0879 32.8945C66.1445 25.9969 71.9738 20.3008 78.9668 20.3574Z" stroke="#2E5235"/>
</svg>
