<svg width="86" height="89" viewBox="0 0 86 89" fill="none" xmlns="http://www.w3.org/2000/svg">
<path d="M14.6975 75.7649V73.3539C14.3429 73.3539 14.0137 73.3539 13.6844 73.3539C12.1395 73.4047 10.5946 73.4301 9.02432 73.4808C8.16321 73.4808 7.73265 73.1255 7.73265 72.2373C7.73265 70.207 7.73265 68.1767 7.73265 66.1464C7.73265 65.2581 8.13788 64.9028 9.02432 64.9028C10.8732 64.9028 12.7474 64.9028 14.7482 64.9028C14.7482 62.9994 14.6469 61.3498 14.7735 59.7255C14.8748 58.2789 14.4443 57.4161 13.2032 56.5024C6.03575 51.2236 1.88216 44.0668 0.74245 35.235C-1.33435 18.9418 10.164 3.5369 26.2972 0.922887C42.2278 -1.66575 57.1199 7.8513 61.4255 23.4085C61.6281 24.1445 61.932 24.4236 62.7171 24.3983C64.414 24.3475 64.566 24.5252 64.566 26.2002C64.566 31.0729 64.566 35.971 64.566 40.8437V41.8335C64.6673 41.8843 64.7686 41.935 64.8699 41.9858C67.2 39.2956 69.53 36.6308 71.9614 33.8392C70.771 33.0271 69.758 32.3418 68.7702 31.6312C67.7065 30.8952 67.7572 30.2861 68.9222 29.7278C73.709 27.4183 78.4957 25.1342 83.3078 22.8502C84.4982 22.2918 85.03 22.6217 84.9287 23.8907C84.5995 28.3066 84.2449 32.7479 83.8903 37.1638C83.8144 38.1536 83.7384 39.118 83.6371 40.1077C83.5104 41.1736 82.9786 41.4021 82.0921 40.793C81.0537 40.1077 80.066 39.3971 78.9516 38.6611C78.749 38.9149 78.521 39.118 78.3438 39.3717C74.4688 44.4729 70.0619 49.0411 65.1992 53.2032C64.8699 53.4824 64.6166 54.0407 64.5913 54.4721C64.566 61.2483 64.5913 68.0498 64.5407 74.8259C64.5407 75.5873 64.7939 75.7903 65.5284 75.7903C67.9851 75.7649 70.4671 75.7903 72.9238 75.7903C75.9884 75.7903 77.8879 77.7191 77.8879 80.7899C77.8879 81.5767 77.8879 82.3634 77.8879 83.1755C77.8372 85.7642 75.9124 87.7183 73.3291 87.8199C73.0758 87.8199 72.8225 87.8199 72.5693 87.8199C52.7637 87.8199 32.9328 87.8199 13.1273 87.8199C9.55618 87.8199 7.75798 86.0179 7.75798 82.4142C7.75798 81.7797 7.75798 81.1452 7.75798 80.5107C7.85928 77.7445 9.78412 75.8411 12.5447 75.7903C13.2286 75.7903 13.9124 75.7903 14.6975 75.7903V75.7649ZM42.6836 86.1195C45.0644 86.1195 47.4197 86.1195 49.8005 86.1195C57.4492 86.1195 65.1232 86.1195 72.7719 86.0941C73.557 86.0941 74.4434 85.8911 75.0766 85.4596C76.8495 84.1907 76.8242 79.3687 75.0766 78.1505C74.4181 77.6937 73.4304 77.5161 72.5946 77.5161C52.7637 77.4907 32.9075 77.4907 13.0766 77.5161C12.7727 77.5161 12.4434 77.5161 12.1395 77.5161C10.6959 77.6176 9.5815 78.7089 9.50552 80.1555C9.45487 81.2721 9.40422 82.3888 9.53085 83.4801C9.60683 84.1145 9.98673 84.7998 10.392 85.3073C11.0251 86.0941 11.9622 86.1195 12.9246 86.1195C22.8527 86.1195 32.8062 86.1195 42.7343 86.1195H42.6836ZM83.1559 24.7789C78.8503 26.8346 74.722 28.8142 70.5684 30.7937C70.7457 30.9967 70.7711 31.0475 70.8217 31.0983C71.5309 31.5805 72.2147 32.088 72.9238 32.5702C74.0129 33.3316 74.0635 33.5854 73.3037 34.6005C62.5145 48.8127 48.5595 58.482 31.4385 63.4816C24.7016 65.4611 17.8127 66.4763 10.7719 66.5524C9.45487 66.5524 9.45487 66.5524 9.45487 67.9483C9.45487 68.8873 9.50553 69.8517 9.45487 70.7907C9.40422 71.6028 9.70814 71.8058 10.4933 71.8058C14.8495 71.7804 19.155 71.3744 23.4353 70.6638C35.4402 68.6842 46.508 64.3191 56.6134 57.5683C64.6673 52.188 71.6068 45.6149 77.432 37.8744C78.521 36.4278 78.5211 36.4278 80.066 37.4683C80.6992 37.8998 81.307 38.3058 82.0921 38.8388C82.472 34.1183 82.8266 29.5502 83.2065 24.7789H83.1559ZM42.9116 30.6414C42.9622 30.4638 43.0129 30.3877 43.0129 30.3115C42.9369 25.8449 42.4557 21.4036 41.4933 17.013C41.3666 16.4801 41.0627 16.4039 40.6068 16.4293C38.9353 16.5816 37.2637 16.8354 35.5921 16.81C31.2866 16.7593 27.0063 16.607 22.7008 16.4293C21.9157 16.4039 21.6117 16.607 21.4344 17.3683C20.5733 21.3782 20.1681 25.4388 19.9908 29.5248C19.9402 30.4638 20.1681 30.7176 21.1052 30.6922C28.0447 30.6668 34.959 30.6922 41.8985 30.6922C42.2278 30.6922 42.5823 30.6668 42.9116 30.6414ZM43.1142 32.4941C42.709 32.4433 42.5317 32.418 42.3291 32.418C35.1362 32.418 27.9688 32.418 20.7759 32.418C20.0415 32.418 19.9402 32.7225 19.9908 33.3316C20.2441 36.0979 20.396 38.8896 20.7 41.6558C20.9026 43.3562 21.3078 45.0566 21.5864 46.6047C25.2335 46.4524 28.6779 46.3002 32.1224 46.1733C32.6542 46.1733 32.9075 46.021 32.9328 45.4119C32.9581 44.2445 33.0848 44.143 34.3005 44.143C36.5039 44.143 38.7327 44.1176 40.9361 44.143C41.7212 44.143 41.9998 43.8638 42.0758 43.1532C42.2024 41.9858 42.4557 40.8437 42.557 39.6763C42.7596 37.3161 42.9116 34.9558 43.0889 32.4941H43.1142ZM18.066 32.4433C18.066 32.4433 17.9647 32.3926 17.838 32.3926C12.874 32.3926 7.90994 32.3926 2.92056 32.3926C2.18608 32.3926 2.21141 32.7986 2.23673 33.3062C2.36337 36.1486 2.94588 38.8896 3.9083 41.5543C4.97203 44.4983 6.46631 47.1884 8.28984 49.5233C12.2661 48.6096 16.0905 47.7214 19.7375 46.8585C19.1804 42.1127 18.6232 37.3414 18.066 32.4433ZM19.9908 16.2771C16.6983 15.4903 13.5072 14.7797 10.316 13.9676C8.28984 13.46 8.28984 13.3839 7.12481 15.135C4.1869 19.5509 2.51533 24.3983 2.21141 29.7278C2.18608 30.2861 2.21141 30.6922 2.97121 30.6922C7.83395 30.6922 12.722 30.6922 17.5848 30.6922C18.0913 30.6922 18.3193 30.5399 18.3193 29.9816C18.3952 25.3373 18.9271 20.7691 19.9655 16.2771H19.9908ZM52.7637 51.6551C52.9916 51.5789 53.1183 51.5536 53.2196 51.4774C56.2841 49.0411 59.374 46.6047 62.4132 44.143C62.6412 43.9399 62.7931 43.4831 62.7931 43.1532C62.7931 37.7729 62.7931 32.3672 62.8184 26.9869C62.8184 26.2509 62.5652 26.0733 61.8813 26.0733C59.222 26.0986 56.5627 26.124 53.9034 26.0733C52.9663 26.0733 52.7384 26.3524 52.7384 27.2407C52.7637 35.032 52.7384 42.8486 52.7384 50.6399C52.7384 50.9445 52.7384 51.249 52.7384 51.6551H52.7637ZM43.0635 16.3278C43.0635 16.3278 43.0635 16.4547 43.0635 16.5562C44.026 20.9975 44.5831 25.4896 44.6085 30.0324C44.6085 30.5399 44.8617 30.6922 45.3176 30.6668C46.9892 30.6668 48.6608 30.6668 50.3577 30.6668C50.8895 30.6668 51.0921 30.4384 51.0921 29.9308C51.0921 29.0172 51.0921 28.1036 51.0921 27.1645C51.0921 24.1699 50.9655 24.3729 53.8781 24.3729C55.8536 24.3729 57.8544 24.3729 59.8046 24.3729C59.8552 24.1952 59.8805 24.1445 59.8805 24.0937C58.9434 20.3123 57.2465 16.9115 54.9165 13.8153C54.7898 13.6377 54.3846 13.5108 54.1314 13.5615C50.4843 14.4498 46.8372 15.3634 43.0889 16.3024L43.0635 16.3278ZM22.1436 14.5005C24.2964 15.4903 38.2514 15.4649 40.8601 14.5259C40.4295 13.2824 40.0496 12.0134 39.5431 10.7952C38.53 8.28273 37.365 5.87175 35.3895 3.94296C32.9075 1.53198 30.1469 1.45584 27.6648 3.84145C24.6509 6.76001 23.334 10.5922 22.1183 14.4752L22.1436 14.5005ZM52.8397 75.7649C55.8789 75.7649 58.7662 75.7396 61.6787 75.7649C62.5905 75.7649 62.8438 75.5111 62.8438 74.5975C62.7931 68.4305 62.8438 62.238 62.8438 56.0456C62.8438 55.7664 62.8184 55.5127 62.7678 55.132C62.4639 55.335 62.2612 55.4619 62.0586 55.6142C59.222 57.5176 56.4108 59.4717 53.5742 61.3244C52.9916 61.7051 52.789 62.0858 52.789 62.771C52.8144 66.7301 52.789 70.6892 52.789 74.6483C52.789 74.9528 52.8144 75.2573 52.8397 75.7142V75.7649ZM34.6297 60.9691C37.9729 59.4971 41.1387 58.1267 44.2792 56.7055C44.4818 56.6039 44.6085 56.1725 44.6085 55.9187C44.6085 52.8225 44.6085 49.7009 44.6338 46.6047C44.6338 45.9195 44.3552 45.7672 43.722 45.7672C42.0758 45.7926 40.4296 45.7672 38.7833 45.7672C37.3903 45.7672 36.0227 45.7672 34.6044 45.7672V60.9691H34.6297ZM32.9328 47.7214C29.2604 47.899 25.74 48.0767 22.0929 48.2797C23.03 51.5789 24.0938 54.4468 25.892 57.0354C26.0693 57.2892 26.5758 57.4161 26.9557 57.4414C27.7408 57.4668 28.222 57.7714 28.0954 58.5835C27.9688 59.5225 28.4246 60.0555 29.1844 60.3092C30.0709 60.5884 30.9827 60.7914 31.9197 60.9183C32.6289 61.0199 32.9835 60.6899 32.9581 59.8524C32.9075 56.6801 32.9581 53.5077 32.9581 50.3608C32.9581 49.574 32.9581 48.7873 32.9581 47.7467L32.9328 47.7214ZM50.9402 48.5589C51.0162 48.3051 51.0921 48.1274 51.0921 47.9244C51.0921 42.9755 51.0921 38.052 51.0921 33.1032C51.0921 32.4941 50.7882 32.3672 50.2563 32.3672C48.6861 32.3672 47.0905 32.418 45.5202 32.3672C44.7858 32.3672 44.6591 32.621 44.6085 33.3062C44.4818 35.768 44.2792 38.2297 44.0766 40.6914C43.9753 41.8081 43.798 42.8994 43.646 44.1176C44.2032 44.1176 44.6338 44.1176 45.039 44.1176C46.0774 44.1176 46.3054 44.346 46.3307 45.4119C46.3307 45.9449 46.3054 46.5032 46.3307 47.0361C46.3307 47.2392 46.508 47.5437 46.6599 47.5945C48.0529 47.9498 49.4712 48.2543 50.9148 48.5842L50.9402 48.5589ZM53.5235 12.0896C48.7874 6.91228 43.2408 3.79069 36.6052 2.57251C37.5423 3.8922 38.606 5.08501 39.2898 6.43008C40.4296 8.79031 41.3413 11.2521 42.3037 13.6884C42.5317 14.2467 42.6836 14.5259 43.3675 14.3736C44.6085 14.0945 45.8495 13.9676 47.0905 13.6884C49.1673 13.2062 51.2188 12.6733 53.5488 12.0896H53.5235ZM9.70814 11.8611C9.70814 11.988 9.70814 12.1403 9.73346 12.2672C12.8993 12.9524 16.0905 13.5615 19.231 14.3229C20.2694 14.5767 20.548 14.196 20.8266 13.2824C21.9916 9.3994 23.5366 5.71948 26.4492 2.75016C26.4492 2.75016 26.4492 2.64864 26.4238 2.57251C19.7882 3.81607 14.2163 6.8869 9.70814 11.8611ZM44.5578 66.1971C44.3805 66.1971 44.2792 66.1717 44.2032 66.1971C41.164 67.3138 38.0995 68.4558 35.0603 69.5979C34.8577 69.674 34.5791 69.9786 34.5791 70.1816C34.5537 72.0089 34.5791 73.8361 34.5791 75.6888C34.9336 75.7142 35.1869 75.7649 35.4402 75.7649C38.2008 75.7649 40.9361 75.7649 43.6967 75.7649C44.4565 75.7649 44.6844 75.5111 44.6844 74.7751C44.6591 72.1865 44.6844 69.5725 44.6844 66.9839C44.6844 66.7047 44.6338 66.4509 44.6085 66.1717L44.5578 66.1971ZM9.53085 50.9952C9.93608 51.452 10.1893 51.8074 10.4933 52.0611C12.4434 53.6346 14.3936 55.1827 16.3438 56.7055C17.1036 57.2892 17.9647 57.4668 18.9271 57.4414C20.3454 57.3653 21.7637 57.4414 23.182 57.4414C23.4353 57.4414 23.6885 57.3907 23.7392 57.3907C22.6755 54.6244 21.6371 51.9089 20.624 49.1933C20.4214 48.6858 20.1934 48.6096 19.7122 48.7111C18.142 49.0411 16.5464 49.2695 14.9761 49.6248C13.2032 50.0308 11.4557 50.5384 9.53085 51.0206V50.9952ZM46.3054 75.7649C47.6477 75.7649 48.8127 75.7142 49.9778 75.7649C50.8895 75.8157 51.0921 75.4858 51.0921 74.6229C51.0668 71.0445 51.0921 67.4661 51.0921 63.8877C51.0921 63.5831 51.0415 63.3039 51.0162 62.8725C49.5979 63.5831 48.3062 64.2683 46.9892 64.852C46.432 65.1058 46.28 65.4611 46.3054 66.0195C46.3307 68.2782 46.3054 70.5115 46.3054 72.7702C46.3054 73.7092 46.3054 74.6483 46.3054 75.7395V75.7649ZM26.4745 59.1418H16.4197V64.446C16.521 64.4967 16.5464 64.5221 16.597 64.4967C19.7376 64.0399 22.8781 63.6085 26.0186 63.1263C26.1959 63.1009 26.4492 62.7456 26.4492 62.5172C26.4998 61.4259 26.4492 60.3092 26.4492 59.1418H26.4745ZM26.3985 75.7142V71.9073C23.03 72.3895 19.7122 72.8464 16.4197 73.3032V75.7142H26.3985ZM32.8822 70.2577C31.3372 70.6384 29.9443 70.9683 28.526 71.349C28.3487 71.3998 28.1207 71.6282 28.1207 71.7805C28.0954 73.1002 28.1207 74.4199 28.1207 75.7142H32.8822V70.2831V70.2577ZM46.3813 55.6649C47.7743 54.8528 49.0153 54.1422 50.231 53.4062C50.9908 52.9494 51.4467 51.2998 51.0162 50.513C50.9655 50.4115 50.8389 50.31 50.7376 50.2846C49.2939 49.9293 47.8503 49.574 46.356 49.1933V55.6396L46.3813 55.6649Z" fill="#2E5235" stroke="#2E5235"/>
</svg>
