<svg width="83" height="81" viewBox="0 0 83 81" fill="none" xmlns="http://www.w3.org/2000/svg">
<path d="M41.2028 79.7352C29.6556 79.7352 18.1255 79.7352 6.57827 79.7352C3.52968 79.7352 1.28155 77.6852 1.09421 74.6615C0.974988 72.6627 0.974987 70.664 1.06014 68.6823C1.07718 68.1698 1.21343 67.6744 1.70733 67.4523C2.28639 67.1961 2.35452 66.7348 2.35452 66.1882C2.35452 62.7886 2.35452 59.3719 2.35452 55.9723C2.35452 54.8961 2.35452 53.8198 2.35452 52.7265C2.35452 52.3165 2.2353 52.009 1.80952 51.8552C1.28155 51.6673 1.06014 51.2232 1.04311 50.6936C1.02608 49.8052 1.04311 48.9169 1.04311 48.0115C1.04311 47.4819 1.26452 47.0036 1.58811 46.5936C1.92874 46.1665 2.26936 45.7565 2.55889 45.3123C3.08686 44.5265 3.80218 44.0482 4.72186 43.8773C5.16468 43.809 5.35202 43.5698 5.33499 43.1086C5.33499 40.9219 5.33499 38.7352 5.33499 36.5486C5.33499 36.2923 5.33499 36.0361 5.06249 35.8652C4.48343 35.5407 4.39827 34.994 4.39827 34.4132C4.39827 33.149 4.39827 31.8848 4.39827 30.6036C4.39827 29.8861 4.61968 29.2882 5.38608 29.1002C5.82889 28.9977 5.81186 28.639 5.86296 28.3315C6.28874 24.9319 7.63421 21.9423 9.8653 19.3286C11.8409 17.0052 14.2934 15.3652 17.1887 14.4427C17.9211 14.2036 18.1084 13.8619 18.1084 13.1444C18.0744 9.74482 18.1084 6.32816 18.1084 2.92857C18.1084 1.85232 18.3298 1.52774 19.3687 1.32274C21.3784 0.912742 23.4051 0.878575 25.4319 1.30566C26.59 1.56191 26.7944 1.80108 26.7944 2.96274C26.7944 6.29399 26.8114 9.62524 26.7944 12.9736C26.7944 13.7423 27.0158 14.1011 27.7822 14.3744C34.237 16.5782 38.0009 21.1223 39.2783 27.8019C39.3975 28.4511 39.4486 29.0661 40.2491 29.3052C40.6237 29.4248 40.8111 29.8519 40.8111 30.2961C40.8111 31.7994 40.8111 33.3027 40.8111 34.8061C40.8111 35.1819 40.6748 35.5236 40.3512 35.7115C39.9425 35.9507 39.8573 36.2752 39.8573 36.7023C39.8573 38.7694 39.8914 40.8365 39.8573 42.9036C39.8573 43.5527 40.0787 43.809 40.7259 43.7407C41.1006 43.7065 41.4753 43.7065 41.85 43.7407C42.5483 43.809 42.7356 43.4844 42.7186 42.8352C42.6845 40.7852 42.7186 38.7523 42.7186 36.7023C42.7186 36.3094 42.6845 35.9677 42.2928 35.7457C41.9011 35.5065 41.7648 35.1136 41.7648 34.6694C41.7648 33.2686 41.7648 31.8507 41.7648 30.4498C41.7648 29.9032 41.9692 29.3907 42.4631 29.254C43.1444 29.0661 43.1955 28.5707 43.2806 28.0411C43.6894 25.2052 44.7453 22.6257 46.4484 20.3194C48.5433 17.5007 51.2342 15.519 54.5723 14.4598C55.2706 14.2377 55.458 13.8961 55.458 13.2127C55.4239 9.81316 55.458 6.39649 55.4409 2.99691C55.4409 1.93774 55.6623 1.57899 56.6842 1.35691C58.745 0.912742 60.8228 0.912742 62.8836 1.35691C63.9055 1.57899 64.1439 1.90358 64.1439 2.96274C64.1439 6.41357 64.1439 9.86441 64.1439 13.3152C64.1439 13.879 64.3312 14.1182 64.8762 14.3061C71.5866 16.5098 75.4356 21.1907 76.6789 28.1094C76.7641 28.6219 76.8322 29.1002 77.4964 29.254C77.8881 29.3394 78.0925 29.7323 78.0925 30.1252C78.1266 31.6798 78.1606 33.2173 78.1606 34.7719C78.1606 35.1477 78.0244 35.5407 77.6667 35.7286C77.3091 35.9336 77.2239 36.224 77.2239 36.6169C77.2239 38.7694 77.2239 40.939 77.2239 43.0915C77.2239 43.5869 77.3942 43.7919 77.8881 43.8773C78.7567 44.0311 79.472 44.4411 79.9489 45.2098C80.0341 45.3465 80.1362 45.5002 80.2555 45.6027C81.8394 47.0377 81.652 48.9169 81.5328 50.779C81.5158 51.189 81.3455 51.599 80.9197 51.7357C80.2725 51.9407 80.2384 52.4019 80.2384 52.9486C80.2384 57.0657 80.2384 61.1657 80.2384 65.2827C80.2384 65.5561 80.2384 65.8465 80.2384 66.1198C80.2044 66.6836 80.2725 67.1619 80.9197 67.4182C81.3625 67.589 81.5498 68.0673 81.5498 68.5286C81.5498 70.7152 81.7202 72.9019 81.4647 75.0715C81.1241 77.8048 78.91 79.7011 76.1509 79.7011C66.1536 79.7011 56.1562 79.7011 46.1589 79.7011C44.5239 79.7011 42.8889 79.7011 41.2369 79.7011L41.2028 79.7352ZM41.2709 78.7102C52.5967 78.7102 63.9225 78.7102 75.2653 78.7102C75.64 78.7102 76.0147 78.7102 76.3894 78.7102C78.5864 78.6077 80.4598 76.7457 80.5109 74.5761C80.545 73.1411 80.5109 71.7061 80.5109 70.2882C80.5109 69.8098 80.3917 69.639 79.8978 69.8098C78.348 70.3223 76.747 70.459 75.1291 70.459C52.733 70.459 30.3198 70.459 7.92374 70.459C6.16952 70.459 4.4153 70.3223 2.72921 69.8098C2.2353 69.6561 2.04796 69.8098 2.04796 70.3223C2.06499 71.7232 2.04796 73.1411 2.04796 74.5419C2.04796 75.0373 2.18421 75.5157 2.37155 75.9769C3.06983 77.7194 4.63671 78.7273 6.71452 78.7273C18.2276 78.7273 29.7408 78.7273 41.2709 78.7273V78.7102ZM79.2166 60.1407C79.2166 57.8002 79.2166 55.4427 79.2166 53.1023C79.2166 52.4702 79.0462 52.2311 78.348 52.3677C77.5645 52.5215 76.7641 52.5557 75.9806 52.5557C52.8522 52.5557 29.7237 52.5557 6.5953 52.5557C5.7778 52.5557 4.9603 52.4873 4.15983 52.3336C3.52968 52.214 3.35936 52.4532 3.35936 53.0169C3.35936 53.2902 3.35936 53.5807 3.35936 53.854C3.35936 58.2273 3.35936 62.5836 3.35936 66.9569C3.35936 67.5207 3.27421 67.9819 2.64405 68.1527C2.52483 68.1869 2.33749 68.2211 2.35452 68.409C2.35452 68.5798 2.52483 68.6311 2.64405 68.6652C3.00171 68.7848 3.35936 68.8873 3.71702 68.9898C5.82889 69.5365 7.99186 69.3998 10.1378 69.3998C11.1086 69.3998 11.1256 69.3998 11.1256 68.4261C11.1256 64.5482 11.1256 60.6702 11.1256 56.8094C11.1256 55.0669 12.403 53.7686 14.1231 53.7686C18.0573 53.7686 21.9916 53.7686 25.9258 53.7686C27.697 53.7686 28.8722 54.9302 28.9062 56.724C28.9233 57.9882 28.9062 59.2523 28.9062 60.5336C28.9062 63.2157 28.9062 65.8807 28.9062 68.5627C28.9062 69.1777 29.0936 69.4852 29.7578 69.434C30.3198 69.3827 30.8819 69.434 31.4439 69.434C32.3182 69.434 32.7553 69.0069 32.7553 68.1527C32.7553 64.3773 32.7553 60.5848 32.7553 56.8094C32.7553 55.0327 33.9986 53.8027 35.7698 53.8027C39.5678 53.8027 43.3487 53.8027 47.1467 53.8027C47.4533 53.8027 47.7428 53.8027 48.0494 53.9052C49.4289 54.3323 50.2123 55.4598 50.2123 57.0827C50.2123 60.9265 50.2123 64.7873 50.2123 68.6311C50.2123 69.229 50.3826 69.4852 51.0128 69.4511C51.6941 69.4169 52.3753 69.4511 53.0566 69.4511C53.9933 69.4511 53.9933 69.4511 53.9933 68.5115C53.9933 64.6677 53.9933 60.8069 53.9933 56.9632C53.9933 55.084 55.2536 53.8198 57.11 53.8198C60.8058 53.8198 64.5016 53.8882 68.2144 53.7857C70.3262 53.7344 71.5355 55.3573 71.5014 57.0486C71.4333 60.8923 71.5014 64.7532 71.4673 68.5969C71.4673 69.229 71.6547 69.4852 72.3019 69.4511C73.4941 69.4169 74.6862 69.4682 75.8784 69.434C77.2409 69.3827 78.5864 69.2119 79.8637 68.7336C80.017 68.6823 80.2044 68.6311 80.2384 68.4602C80.2725 68.2382 80.0341 68.204 79.8978 68.1698C79.3358 67.999 79.2166 67.6061 79.2166 67.0936C79.2166 64.7873 79.2166 62.4982 79.2166 60.1919V60.1407ZM23.7969 30.3986C25.1934 30.4327 27.6119 30.2961 30.0473 30.1936C32.6361 30.0911 35.2248 29.9032 37.7966 29.5273C38.2223 29.459 38.4437 29.2882 38.3756 28.844C38.2905 28.2461 38.2394 27.6311 38.0861 27.0502C36.6044 21.3102 33.1811 17.3469 27.5437 15.3994C27.0328 15.2286 26.607 15.2627 26.0791 15.4507C23.6776 16.2536 21.2592 16.2365 18.8578 15.4336C18.4491 15.2969 18.1084 15.2798 17.7167 15.3994C15.0258 16.2536 12.7266 17.7569 10.8531 19.8752C8.58796 22.4207 7.27655 25.3932 6.83374 28.7757C6.76561 29.254 6.95296 29.4761 7.4128 29.5273C8.07702 29.6127 8.75827 29.7323 9.42249 29.8007C13.8506 30.1936 18.2958 30.3473 23.7798 30.4157L23.7969 30.3986ZM60.4141 30.3815C64.6548 30.2961 69.4066 30.1936 74.1242 29.664C75.8444 29.4761 75.9125 29.4761 75.5719 27.819C74.2605 21.6007 70.7009 17.3469 64.6208 15.3311C64.3142 15.2286 64.0247 15.1773 63.6841 15.314C61.2316 16.2877 58.745 16.2365 56.2755 15.4507C55.7986 15.2969 55.4069 15.2627 54.947 15.4165C52.75 16.1682 50.7914 17.2957 49.1053 18.9186C46.3292 21.5836 44.7453 24.8465 44.2173 28.639C44.1322 29.1857 44.3025 29.4761 44.8986 29.5273C45.5458 29.5786 46.193 29.7152 46.8401 29.7836C51.2001 30.1594 55.5601 30.3644 60.4311 30.3815H60.4141ZM41.2709 51.5136C52.6989 51.5136 64.1098 51.5136 75.5378 51.5136C76.6789 51.5136 77.82 51.4452 78.9611 51.2402C80.5109 50.984 80.528 51.0011 80.5109 49.3952C80.5109 48.6777 80.6642 47.9261 80.1703 47.294C79.7275 46.7132 79.2847 46.1494 78.8248 45.5686C78.5864 45.2611 78.2798 45.0732 77.9051 44.9536C77.4623 44.8169 77.2069 44.8852 77.1898 45.449C77.1387 46.5594 77.0536 46.6448 75.9976 46.9182C75.5548 47.0377 75.095 47.1232 74.6181 47.1915C70.3773 47.8236 66.0855 47.909 61.8106 47.9944C57.4676 48.0969 53.1076 47.8919 48.7647 47.5844C47.1637 47.4648 45.5458 47.3111 43.9789 46.9352C42.8548 46.6619 42.7526 46.5423 42.6845 45.3807C42.6675 44.9707 42.5142 44.7827 42.0884 44.7998C41.5264 44.8169 40.9644 44.7998 40.4023 44.7998C40.0106 44.7998 39.8744 44.9536 39.8403 45.3465C39.7551 46.5936 39.687 46.6619 38.4437 46.9694C38.0861 47.0548 37.7114 47.1402 37.3537 47.1915C32.7042 47.8577 28.0376 47.9602 23.3541 48.0115C18.9089 48.0627 14.4637 47.8748 10.0356 47.4648C8.74124 47.3452 7.42983 47.2257 6.16952 46.8327C5.57343 46.6448 5.28389 46.3202 5.30093 45.6711C5.30093 44.8169 5.06249 44.6973 4.29608 45.0902C4.12577 45.1757 3.97249 45.2782 3.83624 45.4148C2.72921 46.6448 1.62218 47.8748 1.99686 49.7369C2.01389 49.8565 2.01389 49.9761 1.99686 50.0957C1.91171 50.7107 2.20124 50.984 2.7803 51.1207C4.15983 51.4111 5.55639 51.5307 6.95296 51.5307C18.3809 51.5307 29.7919 51.5307 41.2198 51.5307L41.2709 51.5136ZM22.6047 46.9865C26.3345 47.089 30.1155 46.8327 33.8964 46.5423C35.31 46.4398 36.7236 46.1836 38.1372 45.9786C38.563 45.9273 38.8695 45.7565 38.8695 45.2269C38.8695 42.4082 38.8695 39.5894 38.8695 36.7707C38.8695 36.3607 38.7333 36.1898 38.2734 36.2582C34.5436 36.8561 30.7797 37.0269 27.0328 37.1294C20.3906 37.3002 13.7484 37.1636 7.1403 36.2923C6.49311 36.2069 6.37389 36.3777 6.39092 36.9586C6.40796 39.6577 6.40796 42.3569 6.39092 45.0561C6.39092 45.6198 6.5953 45.8419 7.12327 45.9615C8.51983 46.269 9.93343 46.4227 11.3641 46.5423C15.0939 46.8327 18.8237 47.0719 22.6387 46.9865H22.6047ZM58.7109 47.0036C62.9006 47.089 67.0733 46.884 71.2459 46.5594C72.6425 46.4569 74.0391 46.2861 75.4016 45.9957C75.7933 45.9102 76.1509 45.8248 76.1509 45.2611C76.1339 42.4423 76.1509 39.6236 76.1509 36.8048C76.1509 36.3265 75.9976 36.2069 75.5208 36.2923C71.842 36.8561 68.1292 37.044 64.4164 37.1465C57.7742 37.3173 51.132 37.1977 44.5409 36.3094C43.7745 36.2069 43.6553 36.4461 43.6723 37.0952C43.6894 39.4698 43.6723 41.8273 43.6723 44.2019C43.6894 46.064 43.4169 45.8419 45.4095 46.1494C49.8036 46.8157 54.2487 46.9694 58.6939 47.0207L58.7109 47.0036ZM19.9989 69.3998C22.3151 69.3998 24.6314 69.3998 26.9476 69.3998C27.9014 69.3998 27.9355 69.3657 27.9355 68.409C27.9355 64.7019 27.9355 60.9948 27.9355 57.2877C27.9355 57.0827 27.9355 56.8607 27.9014 56.6557C27.7481 55.4598 27.0328 54.8107 25.8406 54.8107C21.9745 54.8107 18.1255 54.8107 14.2594 54.8107C12.948 54.8107 12.1645 55.5794 12.1475 56.8948C12.1475 60.7898 12.1475 64.6848 12.1475 68.5798C12.1475 69.229 12.3689 69.434 12.999 69.4169C15.3323 69.3827 17.6826 69.4169 20.0159 69.4169L19.9989 69.3998ZM62.6962 69.3998C64.9955 69.3998 67.2776 69.3827 69.5769 69.3998C70.2241 69.3998 70.4284 69.1948 70.4114 68.5457C70.3944 64.6336 70.4114 60.7044 70.4114 56.7923C70.4114 55.5282 69.6791 54.7936 68.4017 54.7936C64.6378 54.7936 60.8739 54.7936 57.093 54.7936C55.8326 54.7936 55.0151 55.5794 55.0151 56.8436C55.0151 60.7557 55.0151 64.6848 55.0151 68.5969C55.0151 69.229 55.2536 69.3998 55.8497 69.3998C58.1489 69.3827 60.4311 69.3998 62.7303 69.3998H62.6962ZM41.4583 69.3998C43.7745 69.3998 46.0908 69.3998 48.407 69.3998C48.8839 69.3998 49.1564 69.2973 49.1564 68.7336C49.1564 64.7361 49.1564 60.7557 49.1564 56.7582C49.1564 55.5282 48.3219 54.7765 47.0786 54.7765C43.3147 54.7765 39.5508 54.7765 35.7698 54.7765C34.5776 54.7765 33.7942 55.5623 33.7772 56.7582C33.7772 60.7044 33.7772 64.6507 33.7772 68.5798C33.7772 69.2119 33.9986 69.3827 34.5947 69.3827C36.8939 69.3657 39.1761 69.3827 41.4753 69.3827L41.4583 69.3998ZM22.8431 36.1557C26.6241 36.2411 30.6264 36.0019 34.6117 35.7115C36.0594 35.609 37.49 35.4211 38.9206 35.1648C39.5508 35.0452 39.8403 34.789 39.8062 34.0886C39.7551 33.0294 39.7722 31.9702 39.8062 30.9111C39.8062 30.3815 39.67 30.1936 39.125 30.2961C35.9061 30.9282 32.6361 31.1332 29.3661 31.2527C21.5998 31.509 13.8336 31.5432 6.11843 30.2961C5.57343 30.2107 5.40311 30.4157 5.42014 30.9282C5.43718 32.0044 5.45421 33.0977 5.42014 34.174C5.40311 34.7719 5.65858 35.0452 6.20358 35.1307C7.24249 35.2844 8.2814 35.4894 9.3203 35.5919C13.7484 36.0019 18.1936 36.2411 22.8601 36.1727L22.8431 36.1557ZM60.2778 36.1557C64.0076 36.2411 67.9248 36.019 71.842 35.7115C73.3237 35.5919 74.8225 35.4211 76.2872 35.1307C76.8833 35.0111 77.1728 34.7719 77.1387 34.1057C77.0876 33.0294 77.1047 31.9532 77.1387 30.8598C77.1387 30.3473 76.9344 30.1936 76.4575 30.2961C73.2045 30.9111 69.9175 31.1332 66.6305 31.2527C58.8642 31.509 51.098 31.5432 43.3998 30.2961C42.923 30.2107 42.7697 30.3815 42.7697 30.8427C42.7697 31.9873 42.7867 33.149 42.7697 34.2936C42.7697 34.789 42.9741 35.0111 43.4339 35.1136C44.4898 35.3527 45.5458 35.5065 46.6187 35.5919C51.098 35.9848 55.5772 36.2411 60.2778 36.1727V36.1557ZM25.8406 8.97607C25.8406 7.33607 25.8406 5.69607 25.8406 4.03899C25.8406 3.54357 25.7214 3.30441 25.1423 3.40691C23.3541 3.74858 21.5658 3.74858 19.7775 3.40691C19.2836 3.30441 19.0792 3.45816 19.0792 3.95357C19.0792 7.23357 19.0962 10.5307 19.0962 13.8107C19.0962 14.3232 19.3176 14.5794 19.8116 14.6819C21.5658 15.0577 23.337 15.0919 25.1083 14.7161C25.6703 14.5965 25.8917 14.3232 25.8747 13.7423C25.8406 12.1536 25.8747 10.5477 25.8747 8.95899L25.8406 8.97607ZM63.105 8.97607C63.105 7.31899 63.105 5.64482 63.105 3.98774C63.105 3.49233 62.9517 3.33857 62.4408 3.42399C60.6866 3.76566 58.9153 3.74857 57.1441 3.42399C56.565 3.32149 56.3947 3.50941 56.3947 4.05608C56.3947 7.28482 56.3947 10.5307 56.3947 13.7594C56.3947 14.3061 56.5991 14.5794 57.11 14.699C58.8983 15.0919 60.6695 15.0919 62.4578 14.699C62.9176 14.5965 63.105 14.3744 63.105 13.879C63.088 12.239 63.105 10.599 63.105 8.95899V8.97607ZM24.7676 2.34774C23.2348 1.97191 21.702 1.92066 20.1692 2.34774C21.702 2.75774 23.2348 2.74066 24.7676 2.34774ZM62.0661 2.34774C60.5333 1.97191 59.0005 1.93774 57.4676 2.34774C59.0005 2.77482 60.5333 2.74066 62.0661 2.34774Z" fill="#2E5235" stroke="#2E5235" stroke-width="2"/>
</svg>
