<svg width="95" height="67" viewBox="0 0 95 67" fill="none" xmlns="http://www.w3.org/2000/svg">
<path d="M64.1942 18.366V20.4779C64.0913 23.0532 63.5767 23.6713 60.7979 24.5469C59.7687 24.9074 59.5114 25.2165 59.5629 26.1436C59.9231 29.6976 59.46 33.2001 59.46 36.7026C59.46 36.9601 59.6144 37.4752 59.7173 37.4752C60.1607 37.4954 60.6023 37.407 61.0038 37.2177C61.4579 36.8146 61.8875 36.3846 62.2903 35.93L73.1997 24.753L77.0592 20.8384C78.3933 19.5299 80.183 18.7912 82.0508 18.7781H91.6738C92.1328 18.8125 92.584 18.9167 93.0117 19.0872C93.3045 19.1791 93.5679 19.3465 93.7757 19.5725C93.9834 19.7985 94.1281 20.0752 94.1953 20.3749C94.5634 22.0166 94.5984 23.7155 94.2982 25.371C94.1908 25.8194 93.9523 26.2254 93.6132 26.5374C93.274 26.8493 92.8496 27.053 92.3942 27.1222C90.4084 27.276 88.416 27.3276 86.4249 27.2768C85.5249 27.2054 84.621 27.3505 83.7885 27.6999C82.9559 28.0494 82.219 28.593 81.6391 29.2855C75.6183 35.6209 69.4946 41.8017 63.3709 48.0856L61.8271 49.7853C61.4219 50.2377 61.2015 50.826 61.2096 51.4335C61.1582 53.7513 61.2096 56.0177 61.1581 58.3355C61.1429 59.0949 61.0742 59.8522 60.9523 60.6018C60.7979 61.5804 59.4085 62.9711 58.4308 63.0226C56.7502 63.1434 55.062 63.1089 53.3877 62.9196C51.7103 62.6498 50.2001 61.7466 49.168 60.3958L44.5367 54.6785L42.2724 51.7942C42.0657 51.5628 41.8117 51.3785 41.5275 51.2541C41.2434 51.1296 40.9358 51.0679 40.6257 51.073H37.8983C37.0235 51.073 36.5604 51.5366 36.509 52.5152C36.4575 53.4938 36.5089 54.0604 36.406 54.833C35.9937 58.01 34.4573 60.9339 32.0755 63.0739C29.6936 65.2139 26.6242 66.4284 23.4242 66.4969C20.2242 66.5655 17.1057 65.4836 14.6346 63.4475C12.1634 61.4114 10.5034 58.5561 9.95569 55.3997C9.74985 54.318 9.80131 53.2363 9.69839 52.1547C9.65992 51.8589 9.51142 51.5885 9.28248 51.3976C9.05353 51.2066 8.76103 51.1091 8.4634 51.1245L3.88348 50.97C3.35018 50.8898 2.85352 50.6501 2.45866 50.2824C2.0638 49.9148 1.78914 49.4363 1.67068 48.9097C1.27583 47.2656 1.2935 45.5492 1.72213 43.9136C1.83384 43.3838 2.10641 42.9014 2.50251 42.5326C2.89861 42.1638 3.39891 41.9266 3.93492 41.8533C4.55244 41.7503 5.16994 41.7502 5.78746 41.6987C6.40498 41.6472 7.27979 41.0292 7.07395 39.793C6.86812 38.5568 6.86815 38.2477 6.66231 37.5266C5.68309 33.8177 5.06266 30.023 4.80971 26.1951C4.75825 25.1134 4.14078 24.6499 3.11158 24.4439C2.08239 24.2379 0.590055 22.8987 0.538595 21.1475C0.487135 19.3963 0.487135 18.7266 0.538595 17.4904C0.590055 16.2543 1.4134 14.5545 3.16303 14.1425L3.57473 14.0395C3.96034 14.0366 4.33347 13.9024 4.63276 13.659C4.93204 13.4156 5.13963 13.0775 5.22142 12.7003C5.37061 12.2624 5.54238 11.8326 5.73601 11.4126C6.71375 9.35231 8.25757 7.91011 10.5218 7.54956C11.278 7.47932 12.0086 7.23905 12.6591 6.84662C13.3096 6.4542 13.8631 5.91981 14.2783 5.28331C14.3298 5.18029 14.4841 5.07723 14.5871 4.97421C15.1681 4.46527 15.9263 4.20622 16.697 4.25317L18.4981 4.5107C19.5272 4.76824 20.4535 5.64386 21.5341 5.28331C22.371 4.9274 23.1651 4.47812 23.9013 3.94407C25.651 2.96544 27.452 3.12004 29.2531 3.63511C29.6151 3.75827 30.0019 3.78969 30.3791 3.72678C30.7562 3.66386 31.1119 3.50847 31.4144 3.27446L32.8553 2.14133C33.3302 1.75625 33.8482 1.42787 34.3991 1.16274C35.2038 0.703516 36.1193 0.474924 37.0452 0.502182C37.9711 0.529439 38.8716 0.811518 39.648 1.31729C39.9133 1.42864 40.1571 1.58547 40.3684 1.7808C41.552 3.06848 42.787 3.58352 44.3823 2.6564C44.5175 2.55921 44.679 2.50531 44.8454 2.50185C45.6716 2.31184 46.5329 2.34015 47.3449 2.58397C48.1569 2.82778 48.8915 3.27881 49.4768 3.89264C50.2487 4.61374 50.5574 5.84981 51.6381 6.10734C52.7187 6.36488 53.4906 6.05591 54.3655 6.05591C55.5226 6.03304 56.6511 6.41755 57.5539 7.14239C58.4568 7.86722 59.0767 8.88633 59.3056 10.0219C59.433 10.4739 59.4852 10.9437 59.46 11.4126C59.46 12.7003 60.0775 13.3184 61.364 13.4214C61.8126 13.5433 62.2324 13.7534 62.599 14.0395C62.9928 14.2733 63.3276 14.5947 63.5774 14.9787C63.8273 15.3628 63.9856 15.7993 64.0399 16.2543C64.1428 17.233 64.1428 18.16 64.1942 18.366ZM32.2378 24.5469H11.6024C10.5218 24.5469 9.49255 24.6499 8.41189 24.7014C7.33124 24.7529 7.33124 25.474 7.3827 25.9891L7.5371 27.3283C7.89732 31.6549 9.02944 35.7755 9.85279 39.9476C9.90299 40.2476 10.062 40.5186 10.2994 40.7087C10.5367 40.8988 10.8358 40.9945 11.1393 40.9777C14.021 40.8232 16.9542 40.8232 19.836 40.4626C21.9296 40.1198 24.0619 40.0849 26.1655 40.3595C27.3769 40.5204 28.5972 40.6064 29.8192 40.617H52.2556L55.0345 40.5141C55.4024 40.4514 55.7407 40.2728 55.9999 40.004C56.2591 39.7353 56.4257 39.3906 56.4753 39.0204C57.0495 34.6138 57.1358 30.1571 56.7326 25.7316C56.7232 25.5725 56.6885 25.4161 56.6297 25.2681C56.4239 25.062 56.218 24.7014 56.0121 24.7014C55.2663 24.5562 54.5077 24.4872 53.748 24.4954L32.2378 24.5469ZM32.2378 21.9715V21.817H58.8424C61.5183 21.817 61.6727 21.302 61.6727 18.9327C61.6812 18.4685 61.6641 18.0043 61.6213 17.542C61.6222 17.1631 61.4792 16.7979 61.2212 16.5205C60.9632 16.2432 60.6096 16.0744 60.2319 16.0482L56.9899 15.9452L6.55936 16.3058H5.22142C3.93492 16.3573 3.16304 17.0784 3.11158 18.263C3.06012 19.4477 3.11157 19.8083 3.16303 20.5809C3.17117 20.8806 3.2836 21.1682 3.48088 21.3938C3.67817 21.6195 3.94792 21.7691 4.24367 21.817L7.02251 21.9201L32.2378 21.9715ZM47.3669 48.4976H58.3278C58.7142 48.5125 59.0991 48.4417 59.4549 48.2903C59.8107 48.1389 60.1287 47.9108 60.3862 47.622L62.2903 45.6648C67.9508 39.896 73.56 34.0757 79.2205 28.2554C79.838 27.5858 80.4555 26.9163 81.1245 26.2982C81.6016 25.798 82.1773 25.4024 82.815 25.1364C83.4528 24.8704 84.1388 24.7399 84.8296 24.753H89.8212C90.4348 24.7125 91.0404 24.5912 91.6223 24.3923C91.749 24.3346 91.861 24.2491 91.9501 24.1421C92.0392 24.0351 92.103 23.9094 92.1369 23.7743C92.3942 22.2291 91.7252 21.2504 90.3358 21.1989H85.7559C79.9924 21.0959 80.0953 21.3534 76.2358 25.3195C72.3764 29.2855 67.0245 34.6938 62.4446 39.3809C61.7242 40.1535 60.9523 40.8747 60.1804 41.5958C59.6349 42.1344 58.981 42.5507 58.2624 42.8172C57.5437 43.0836 56.7767 43.194 56.0121 43.141H40.0082L34.0389 43.244C33.6272 43.244 33.3699 43.862 33.6272 44.2741C33.8845 44.6861 34.9137 46.3344 35.4798 47.4161C35.6387 47.7588 35.8932 48.0481 36.2128 48.2492C36.5324 48.4502 36.9034 48.5545 37.2808 48.5492L47.3669 48.4976ZM32.0319 13.6274V13.5244L52.6673 13.3699L55.8578 13.2153C56.3724 13.2153 56.887 12.5458 56.8355 11.8762C56.8426 11.5834 56.8253 11.2905 56.784 11.0005C56.4753 9.50681 55.6005 8.73423 54.2626 8.83724C52.9246 8.94025 52.1527 9.04327 51.072 9.09478C50.7709 9.13111 50.4656 9.08855 50.1859 8.97116C49.9063 8.85378 49.6619 8.66557 49.4768 8.42516C48.8078 7.54954 48.2932 6.67399 47.6242 5.79838C47.3262 5.4375 46.9167 5.18605 46.4603 5.08349C46.0039 4.98093 45.5263 5.03303 45.1027 5.23175L43.0958 6.21046C41.8093 6.82854 41.3461 6.7255 40.3169 5.54084C39.2877 4.35618 39.5451 4.61374 39.1334 4.15018C38.6324 3.67621 37.9954 3.37152 37.3122 3.27911C36.629 3.1867 35.9341 3.31124 35.3254 3.63511C34.6596 4.01639 34.0232 4.44681 33.4214 4.92278L31.7232 6.46799C31.4996 6.67712 31.2205 6.81736 30.9194 6.87215C30.6183 6.92695 30.3078 6.89392 30.025 6.77696C29.0681 6.28723 28.012 6.02296 26.9374 6.00435C26.1757 6.00402 25.4223 6.16194 24.7247 6.46799C23.6955 7.03457 22.8206 8.11612 21.6885 8.42516C20.5564 8.7342 19.2699 7.39509 17.9319 7.08605C17.5012 6.95211 17.0389 6.95986 16.6129 7.10818C16.1869 7.2565 15.8195 7.5375 15.5648 7.91009C15.4677 8.04543 15.4139 8.20714 15.4105 8.37373C15.2958 8.81829 15.036 9.21182 14.6724 9.49177C14.3088 9.77171 13.8622 9.92204 13.4035 9.91894C12.786 9.97044 12.1685 9.91891 11.551 10.0219C10.9393 10.0684 10.3454 10.2495 9.81165 10.5522C9.27793 10.8549 8.8176 11.2718 8.4634 11.7731C8.31505 11.9392 8.20568 12.1365 8.14335 12.3504C8.08102 12.5643 8.06728 12.7895 8.10315 13.0094C8.11528 13.123 8.15094 13.2329 8.2078 13.332C8.26466 13.4312 8.34148 13.5175 8.43344 13.5853C8.5254 13.6531 8.63047 13.701 8.74194 13.726C8.8534 13.751 8.96882 13.7525 9.0809 13.7304C10.3159 13.8334 11.5509 13.8334 12.786 13.8334L32.0319 13.6274ZM33.8845 52.8243C33.833 49.4764 33.0097 47.313 30.4367 45.1497C27.8637 42.9864 24.4674 41.8018 20.6593 42.7289C16.8513 43.656 12.0656 48.3947 12.3743 53.9574C12.6831 58.6446 16.8513 63.7952 22.4604 64.0527C28.0695 64.3103 34.1932 59.4172 33.8845 52.8243ZM58.4308 55.8116H58.5851C58.4822 54.4209 58.3278 53.0818 58.2249 51.7426C58.1735 51.3306 57.9161 51.279 57.5559 51.2275C56.2694 51.1245 55.8063 51.4335 55.7034 52.6182C55.6005 53.8029 55.652 53.8544 55.6005 54.4725C55.551 54.7687 55.4103 55.042 55.1982 55.2544C54.986 55.4668 54.7129 55.6077 54.4169 55.6572C54.1208 55.676 53.8278 55.5873 53.5916 55.4076C53.3554 55.2279 53.1916 54.9691 53.1304 54.6785C53.0275 53.9059 53.0275 53.1333 52.9246 52.4122C52.8216 51.6911 52.4614 51.2275 51.8439 51.2275H46.8009C46.5316 51.2414 46.2762 51.351 46.0804 51.5366C45.7717 51.7942 45.8746 52.1031 46.0804 52.3607C47.5213 54.2149 49.0136 55.9662 50.3001 57.8205C50.8435 58.7502 51.6404 59.5056 52.5973 59.9982C53.5543 60.4908 54.6318 60.7002 55.7034 60.6018H56.5782C57.7618 60.6018 58.3793 60.0868 58.4308 59.0051V55.8116ZM8.7207 48.5492C10.5733 48.4977 10.213 48.6522 11.7053 46.3344C12.0607 45.8564 12.3872 45.3577 12.6831 44.8407C12.7428 44.5494 12.725 44.2473 12.6316 43.965L12.2199 43.862L5.01557 44.3256C4.86119 44.3256 4.7583 44.4286 4.60393 44.5316C4.49031 44.6292 4.40202 44.7529 4.34663 44.8922C4.1186 45.3662 4.00019 45.8855 4.00019 46.4116C4.00019 46.9377 4.1186 47.4571 4.34663 47.9311C4.70685 48.7037 5.63312 48.4977 6.40502 48.5492H8.7207Z" fill="#2E5235"/>
<path d="M18.0858 53.0303C18.1114 51.8809 18.5449 50.7781 19.3086 49.9193C20.0723 49.0606 21.1164 48.5018 22.254 48.3431C22.8489 48.2406 23.4514 48.189 24.0551 48.1887C24.9012 48.1844 25.7296 48.4317 26.435 48.8994C27.1405 49.3671 27.6913 50.034 28.0175 50.8154C29.4069 53.6483 28.1719 56.6357 25.1872 57.8719C23.9362 58.4346 22.5158 58.49 21.2248 58.0264C20.2245 57.6564 19.3745 56.966 18.8068 56.0625C18.2391 55.1589 17.9856 54.0929 18.0858 53.0303ZM23.0773 55.6056C23.4196 55.5888 23.7545 55.4993 24.0596 55.3432C24.3648 55.187 24.6333 54.9678 24.8474 54.7C25.0615 54.4321 25.2162 54.1218 25.3014 53.7895C25.3866 53.4573 25.4003 53.1107 25.3416 52.7727C25.3224 52.5106 25.2507 52.2551 25.1307 52.0214C25.0107 51.7876 24.8449 51.5805 24.6432 51.4122C24.4415 51.244 24.2081 51.1181 23.9567 51.0422C23.7054 50.9662 23.4413 50.9416 23.1803 50.97C22.5827 50.9943 22.0152 51.2394 21.5875 51.658C21.1598 52.0765 20.9023 52.6387 20.8646 53.2362C20.8506 53.8424 21.0744 54.43 21.488 54.8729C21.9017 55.3158 22.4722 55.5788 23.0773 55.6056Z" fill="#2E5235"/>
<path d="M32.2378 24.5469H11.6024C10.5218 24.5469 9.49255 24.6499 8.41189 24.7014C7.33124 24.7529 7.33124 25.474 7.3827 25.9891L7.5371 27.3283C7.89732 31.6549 9.02944 35.7755 9.85279 39.9476C9.90299 40.2476 10.062 40.5186 10.2994 40.7087C10.5367 40.8988 10.8358 40.9945 11.1393 40.9777C14.021 40.8232 16.9542 40.8232 19.836 40.4626C21.9296 40.1198 24.0619 40.0849 26.1655 40.3595C27.3769 40.5204 28.5972 40.6064 29.8192 40.617H52.2556L55.0345 40.5141C55.4024 40.4514 55.7407 40.2728 55.9999 40.004C56.2591 39.7353 56.4257 39.3906 56.4753 39.0204C57.0495 34.6138 57.1358 30.1571 56.7326 25.7316C56.7232 25.5725 56.6885 25.4161 56.6297 25.2681C56.4239 25.062 56.218 24.7014 56.0121 24.7014C55.2663 24.5562 54.5077 24.4872 53.748 24.4954L32.2378 24.5469ZM32.2378 24.5469L53.7478 24.5464C54.5076 24.5382 55.2662 24.6073 56.012 24.7525C56.2178 24.7525 56.4237 25.113 56.6295 25.319C56.6883 25.4671 56.723 25.6236 56.7324 25.7826C57.1356 30.2082 57.0493 34.6647 56.4751 39.0714C56.4255 39.4416 56.259 39.7864 55.9997 40.0551C55.7405 40.3238 55.4022 40.5025 55.0343 40.5651L52.2555 40.6681H29.819C28.597 40.6575 27.3768 40.5715 26.1653 40.4106C24.0618 40.136 21.9294 40.1707 19.8358 40.5136C16.9541 40.8741 14.0209 40.8741 11.1391 41.0287C10.8356 41.0455 10.5366 40.9497 10.2992 40.7597C10.0618 40.5696 9.90283 40.2986 9.85264 39.9985C9.02928 35.8264 7.89717 31.7059 7.53695 27.3793L7.38255 26.0402C7.33109 25.5251 7.89714 24.7525 8.41174 24.7525C8.92634 24.7525 10.5216 24.598 11.6023 24.598H32.2376L32.2378 24.5469ZM47.3669 48.4976H58.3278C58.7142 48.5125 59.0991 48.4417 59.4549 48.2903C59.8107 48.1389 60.1287 47.9108 60.3862 47.622L62.2903 45.6648C67.9508 39.896 73.56 34.0757 79.2205 28.2554C79.838 27.5858 80.4555 26.9163 81.1245 26.2982C81.6016 25.798 82.1773 25.4024 82.815 25.1364C83.4528 24.8704 84.1388 24.7399 84.8296 24.753H89.8212C90.4348 24.7125 91.0404 24.5912 91.6223 24.3923C91.749 24.3346 91.861 24.2491 91.9501 24.1421C92.0392 24.0351 92.103 23.9094 92.1369 23.7743C92.3942 22.2291 91.7252 21.2504 90.3358 21.1989H85.7559C79.9924 21.0959 80.0953 21.3534 76.2358 25.3195C72.3764 29.2855 67.0245 34.6938 62.4446 39.3809C61.7242 40.1535 60.9523 40.8747 60.1804 41.5958C59.6349 42.1344 58.981 42.5507 58.2624 42.8172C57.5437 43.0836 56.7767 43.194 56.0121 43.141H40.0082L34.0389 43.244C33.6272 43.244 33.3699 43.862 33.6272 44.2741C33.8845 44.6861 34.9137 46.3344 35.4798 47.4161C35.6387 47.7588 35.8932 48.0481 36.2128 48.2492C36.5324 48.4502 36.9034 48.5545 37.2808 48.5492L47.3669 48.4976ZM47.3669 48.4976L37.2809 48.4974C36.9034 48.5027 36.5325 48.3986 36.2129 48.1975C35.8933 47.9964 35.6387 47.707 35.4798 47.3643C34.9137 46.2826 34.2447 45.2524 33.6272 44.2223C33.0097 43.1921 33.6272 43.1921 34.0389 43.1921L40.0082 43.0892H56.0122C56.7767 43.1422 57.5438 43.0319 58.2624 42.7655C58.9811 42.4991 59.6349 42.0826 60.1805 41.5439C60.9524 40.8228 61.7242 40.1017 62.4447 39.3291C67.0246 34.642 71.6045 29.9034 76.2359 25.2678C80.8673 20.6322 79.9924 21.0442 85.7559 21.1472H90.3359C91.7253 21.1987 92.3942 22.1774 92.1369 23.7226C92.1031 23.8577 92.0392 23.9834 91.9501 24.0904C91.8611 24.1974 91.749 24.2829 91.6224 24.3407C91.0404 24.5395 90.4348 24.6607 89.8213 24.7012H84.8296C84.1388 24.6881 83.4529 24.8186 82.8151 25.0846C82.1773 25.3506 81.6017 25.7462 81.1246 26.2464C80.4556 26.8645 79.8381 27.5341 79.2206 28.2037C73.56 34.024 67.9509 39.8443 62.2903 45.6131L60.3863 47.5702C60.1288 47.8589 59.8108 48.0872 59.4549 48.2386C59.0991 48.39 58.7142 48.4608 58.3279 48.446H47.367L47.3669 48.4976ZM56.784 11.0005C56.8253 11.2905 56.8426 11.5834 56.8355 11.8762C56.887 12.5458 56.3724 13.2153 55.8578 13.2153L52.6673 13.3699L32.0319 13.5244V13.6274L12.786 13.8334C11.5509 13.8334 10.3159 13.8334 9.0809 13.7304C8.96882 13.7525 8.8534 13.751 8.74194 13.726C8.63047 13.701 8.5254 13.6531 8.43344 13.5853C8.34148 13.5175 8.26466 13.4312 8.2078 13.332C8.15094 13.2329 8.11528 13.123 8.10315 13.0094C8.06728 12.7895 8.08102 12.5643 8.14335 12.3504C8.20568 12.1365 8.31505 11.9392 8.4634 11.7731C8.8176 11.2718 9.27793 10.8549 9.81165 10.5522C10.3454 10.2495 10.9393 10.0684 11.551 10.0219C12.1685 9.91891 12.786 9.97044 13.4035 9.91894C13.8622 9.92204 14.3088 9.77171 14.6724 9.49177C15.036 9.21182 15.2958 8.81829 15.4105 8.37373C15.4139 8.20714 15.4677 8.04543 15.5648 7.91009C15.8195 7.5375 16.1869 7.2565 16.6129 7.10818C17.0389 6.95986 17.5012 6.95211 17.9319 7.08605M56.784 11.0005C56.4753 9.50681 55.6005 8.73423 54.2626 8.83724M56.784 11.0005C56.4753 9.50681 55.2918 8.83724 54.2626 8.83724M54.2626 8.83724C52.9246 8.94025 52.1527 9.04327 51.072 9.09478M54.2626 8.83724C53.2334 8.83724 52.1527 9.04327 51.072 9.09478M51.072 9.09478C50.7709 9.13111 50.4656 9.08855 50.1859 8.97116C49.9063 8.85378 49.6619 8.66557 49.4768 8.42516C48.8078 7.54954 48.2932 6.67399 47.6242 5.79838C47.3262 5.4375 46.9167 5.18605 46.4603 5.08349C46.0039 4.98093 45.5263 5.03303 45.1027 5.23175L43.0958 6.21046M43.0958 6.21046C41.8093 6.82854 41.3461 6.7255 40.3169 5.54084M43.0958 6.21046C41.8093 6.82854 40.7286 5.9529 40.3169 5.54084M40.3169 5.54084C39.2877 4.35618 39.5451 4.61374 39.1334 4.15018M40.3169 5.54084C39.9052 5.12878 39.5451 4.61374 39.1334 4.15018M39.1334 4.15018C38.6324 3.67621 37.9954 3.37152 37.3122 3.27911C36.629 3.1867 35.9341 3.31124 35.3254 3.63511C34.6596 4.01639 34.0232 4.44681 33.4214 4.92278L31.7232 6.46799C31.4996 6.67712 31.2205 6.81736 30.9194 6.87215C30.6183 6.92695 30.3078 6.89392 30.025 6.77696C29.0681 6.28723 28.012 6.02296 26.9374 6.00435C26.1757 6.00402 25.4223 6.16194 24.7247 6.46799M24.7247 6.46799C23.6955 7.03457 22.8206 8.11612 21.6885 8.42516M24.7247 6.46799C23.6955 7.03457 23.0779 8.0131 21.6885 8.42516M21.6885 8.42516C20.5564 8.7342 19.2699 7.39509 17.9319 7.08605M21.6885 8.42516C20.2991 8.83721 19.2699 7.39509 17.9319 7.08605M57.5559 51.2275C57.9161 51.279 58.1735 51.3306 58.2249 51.7426C58.3278 53.0818 58.4822 54.4209 58.5851 55.8116H58.4308V59.0051C58.3793 60.0868 57.7618 60.6018 56.5782 60.6018H55.7034C54.6318 60.7002 53.5543 60.4908 52.5973 59.9982C51.6404 59.5056 50.8435 58.7502 50.3001 57.8205C49.0136 55.9662 47.5213 54.2149 46.0804 52.3607C45.8746 52.1031 45.7717 51.7942 46.0804 51.5366C46.2762 51.351 46.5316 51.2414 46.8009 51.2275H51.8439M57.5559 51.2275C56.2694 51.1245 55.8063 51.4335 55.7034 52.6182M57.5559 51.2275C56.2694 51.1245 55.7549 52.0001 55.7034 52.6182M55.7034 52.6182C55.6005 53.8029 55.652 53.8544 55.6005 54.4725M55.7034 52.6182C55.6519 53.2363 55.652 53.8544 55.6005 54.4725M55.6005 54.4725C55.551 54.7687 55.4103 55.042 55.1982 55.2544C54.986 55.4668 54.7129 55.6077 54.4169 55.6572C54.1208 55.676 53.8278 55.5873 53.5916 55.4076C53.3554 55.2279 53.1916 54.9691 53.1304 54.6785M53.1304 54.6785C53.0275 53.9059 53.0275 53.1333 52.9246 52.4122M53.1304 54.6785C53.0275 53.9059 52.976 53.1848 52.9246 52.4122M52.9246 52.4122C52.8216 51.6911 52.4614 51.2275 51.8439 51.2275M52.9246 52.4122C52.8731 51.6396 52.4614 51.2275 51.8439 51.2275M64.1942 18.366V20.4779C64.0913 23.0532 63.5767 23.6713 60.7979 24.5469C59.7687 24.9074 59.5114 25.2165 59.5629 26.1436C59.9231 29.6976 59.46 33.2001 59.46 36.7026C59.46 36.9601 59.6144 37.4752 59.7173 37.4752C60.1607 37.4954 60.6023 37.407 61.0038 37.2177C61.4579 36.8146 61.8875 36.3846 62.2903 35.93L73.1997 24.753L77.0592 20.8384C78.3933 19.5299 80.183 18.7912 82.0508 18.7781H91.6738C92.1328 18.8125 92.584 18.9167 93.0117 19.0872C93.3045 19.1791 93.5679 19.3465 93.7757 19.5725C93.9834 19.7985 94.1281 20.0752 94.1953 20.3749C94.5634 22.0166 94.5984 23.7155 94.2982 25.371C94.1908 25.8194 93.9523 26.2254 93.6132 26.5374C93.274 26.8493 92.8496 27.053 92.3942 27.1222C90.4084 27.276 88.416 27.3276 86.4249 27.2768C85.5249 27.2054 84.621 27.3505 83.7885 27.6999C82.9559 28.0494 82.219 28.593 81.6391 29.2855C75.6183 35.6209 69.4946 41.8017 63.3709 48.0856L61.8271 49.7853C61.4219 50.2377 61.2015 50.826 61.2096 51.4335C61.1582 53.7513 61.2096 56.0177 61.1581 58.3355C61.1429 59.0949 61.0742 59.8522 60.9523 60.6018C60.7979 61.5804 59.4085 62.9711 58.4308 63.0226C56.7502 63.1434 55.062 63.1089 53.3877 62.9196C51.7103 62.6498 50.2001 61.7466 49.168 60.3958L44.5367 54.6785L42.2724 51.7942C42.0657 51.5628 41.8117 51.3785 41.5275 51.2541C41.2434 51.1296 40.9358 51.0679 40.6257 51.073H37.8983C37.0235 51.073 36.5604 51.5366 36.509 52.5152C36.4575 53.4938 36.5089 54.0604 36.406 54.833C35.9937 58.01 34.4573 60.9339 32.0755 63.0739C29.6936 65.2139 26.6242 66.4284 23.4242 66.4969C20.2242 66.5655 17.1057 65.4836 14.6346 63.4475C12.1634 61.4114 10.5034 58.5561 9.95569 55.3997C9.74985 54.318 9.80131 53.2363 9.69839 52.1547C9.65992 51.8589 9.51142 51.5885 9.28248 51.3976C9.05353 51.2066 8.76103 51.1091 8.4634 51.1245L3.88348 50.97C3.35018 50.8898 2.85352 50.6501 2.45866 50.2824C2.0638 49.9148 1.78914 49.4363 1.67068 48.9097C1.27583 47.2656 1.2935 45.5492 1.72213 43.9136C1.83384 43.3838 2.10641 42.9014 2.50251 42.5326C2.89861 42.1638 3.39891 41.9266 3.93492 41.8533C4.55244 41.7503 5.16994 41.7502 5.78746 41.6987C6.40498 41.6472 7.27979 41.0292 7.07395 39.793C6.86812 38.5568 6.86815 38.2477 6.66231 37.5266C5.68309 33.8177 5.06266 30.023 4.80971 26.1951C4.75825 25.1134 4.14078 24.6499 3.11158 24.4439C2.08239 24.2379 0.590055 22.8987 0.538595 21.1475C0.487135 19.3963 0.487135 18.7266 0.538595 17.4904C0.590055 16.2543 1.4134 14.5545 3.16303 14.1425L3.57473 14.0395C3.96034 14.0366 4.33347 13.9024 4.63276 13.659C4.93204 13.4156 5.13963 13.0775 5.22142 12.7003C5.37061 12.2624 5.54238 11.8326 5.73601 11.4126C6.71375 9.35231 8.25757 7.91011 10.5218 7.54956C11.278 7.47932 12.0086 7.23905 12.6591 6.84662C13.3096 6.4542 13.8631 5.91981 14.2783 5.28331C14.3298 5.18029 14.4841 5.07723 14.5871 4.97421C15.1681 4.46527 15.9263 4.20622 16.697 4.25317L18.4981 4.5107C19.5272 4.76824 20.4535 5.64386 21.5341 5.28331C22.371 4.9274 23.1651 4.47812 23.9013 3.94407C25.651 2.96544 27.452 3.12004 29.2531 3.63511C29.6151 3.75827 30.0019 3.78969 30.3791 3.72678C30.7562 3.66386 31.1119 3.50847 31.4144 3.27446L32.8553 2.14133C33.3302 1.75625 33.8482 1.42787 34.3991 1.16274C35.2038 0.703516 36.1193 0.474924 37.0452 0.502182C37.9711 0.529439 38.8716 0.811518 39.648 1.31729C39.9133 1.42864 40.1571 1.58547 40.3684 1.7808C41.552 3.06848 42.787 3.58352 44.3823 2.6564C44.5175 2.55921 44.679 2.50531 44.8454 2.50185C45.6716 2.31184 46.5329 2.34015 47.3449 2.58397C48.1569 2.82778 48.8915 3.27881 49.4768 3.89264C50.2487 4.61374 50.5574 5.84981 51.6381 6.10734C52.7187 6.36488 53.4906 6.05591 54.3655 6.05591C55.5226 6.03304 56.6511 6.41755 57.5539 7.14239C58.4568 7.86722 59.0767 8.88633 59.3056 10.0219C59.433 10.4739 59.4852 10.9437 59.46 11.4126C59.46 12.7003 60.0775 13.3184 61.364 13.4214C61.8126 13.5433 62.2324 13.7534 62.599 14.0395C62.9928 14.2733 63.3276 14.5947 63.5774 14.9787C63.8273 15.3628 63.9856 15.7993 64.0399 16.2543C64.1428 17.233 64.1428 18.16 64.1942 18.366ZM32.2378 21.9715V21.817H58.8424C61.5183 21.817 61.6727 21.302 61.6727 18.9327C61.6812 18.4685 61.6641 18.0043 61.6213 17.542C61.6222 17.1631 61.4792 16.7979 61.2212 16.5205C60.9632 16.2432 60.6096 16.0744 60.2319 16.0482L56.9899 15.9452L6.55936 16.3058H5.22142C3.93492 16.3573 3.16304 17.0784 3.11158 18.263C3.06012 19.4477 3.11157 19.8083 3.16303 20.5809C3.17117 20.8806 3.2836 21.1682 3.48088 21.3938C3.67817 21.6195 3.94792 21.7691 4.24367 21.817L7.02251 21.9201L32.2378 21.9715ZM33.8845 52.8243C33.833 49.4764 33.0097 47.313 30.4367 45.1497C27.8637 42.9864 24.4674 41.8018 20.6593 42.7289C16.8513 43.656 12.0656 48.3947 12.3743 53.9574C12.6831 58.6446 16.8513 63.7952 22.4604 64.0527C28.0695 64.3103 34.1932 59.4172 33.8845 52.8243ZM8.7207 48.5492C10.5733 48.4977 10.213 48.6522 11.7053 46.3344C12.0607 45.8564 12.3872 45.3577 12.6831 44.8407C12.7428 44.5494 12.725 44.2473 12.6316 43.965L12.2199 43.862L5.01557 44.3256C4.86119 44.3256 4.7583 44.4286 4.60393 44.5316C4.49031 44.6292 4.40202 44.7529 4.34663 44.8922C4.1186 45.3662 4.00019 45.8855 4.00019 46.4116C4.00019 46.9377 4.1186 47.4571 4.34663 47.9311C4.70685 48.7037 5.63312 48.4977 6.40502 48.5492H8.7207ZM32.2356 21.9715H7.02036L4.24152 21.8685C3.94577 21.8207 3.67601 21.6709 3.47873 21.4453C3.28145 21.2196 3.16902 20.9322 3.16088 20.6324C3.10942 19.8598 3.10943 19.0872 3.10943 18.3146C3.10943 17.542 3.93277 16.4088 5.21927 16.3573H6.55721L56.9877 15.9968L60.2297 16.0998C60.6074 16.1259 60.9611 16.2948 61.219 16.5721C61.477 16.8494 61.62 17.2145 61.6191 17.5934C61.6619 18.0557 61.6791 18.5199 61.6706 18.9841C61.6706 21.3534 61.5162 21.8685 58.8403 21.8685H32.2356V21.9715ZM33.8821 52.8241C34.1908 59.417 27.9128 64.3101 22.4581 64.0526C17.0033 63.795 12.6807 58.6444 12.372 53.9573C12.0632 48.3945 16.3858 43.7588 20.657 42.7287C24.9281 41.6986 27.604 42.7802 30.4343 45.1495C33.2646 47.5188 33.8306 49.4762 33.8821 52.8241ZM18.084 53.0301C17.9838 54.0927 18.2373 55.1588 18.805 56.0623C19.3727 56.9658 20.2227 57.6563 21.223 58.0263C22.514 58.4898 23.9344 58.4344 25.1854 57.8717C28.1701 56.6355 29.4051 53.6482 28.0157 50.8153C27.6895 50.0338 27.1387 49.3669 26.4332 48.8992C25.7278 48.4316 24.8994 48.1842 24.0533 48.1885C23.4496 48.1888 22.8471 48.2404 22.2522 48.3429C21.1146 48.5016 20.0705 49.0604 19.3068 49.9192C18.5431 50.7779 18.1096 51.8807 18.084 53.0301ZM8.71746 48.5489H6.40177C5.62987 48.4973 4.7036 48.7034 4.34338 47.9308C4.11535 47.4568 3.99694 46.9373 3.99694 46.4112C3.99694 45.8851 4.11535 45.3658 4.34338 44.8918C4.39877 44.7526 4.48706 44.6289 4.60068 44.5313C4.75506 44.4283 4.85794 44.3253 5.01232 44.3253L12.2167 43.8617L12.6284 43.9647C12.7218 44.247 12.7395 44.549 12.6798 44.8404C12.384 45.3573 12.0575 45.8561 11.7021 46.334C10.2098 48.6518 10.57 48.4973 8.71746 48.5489ZM18.0858 53.0303C18.1114 51.8809 18.5449 50.7781 19.3086 49.9193C20.0723 49.0606 21.1164 48.5018 22.254 48.3431C22.8489 48.2406 23.4514 48.189 24.0551 48.1887C24.9012 48.1844 25.7296 48.4317 26.435 48.8994C27.1405 49.3671 27.6913 50.034 28.0175 50.8154C29.4069 53.6483 28.1719 56.6357 25.1872 57.8719C23.9362 58.4346 22.5158 58.49 21.2248 58.0264C20.2245 57.6564 19.3745 56.966 18.8068 56.0625C18.2391 55.1589 17.9856 54.0929 18.0858 53.0303ZM23.0773 55.6056C23.4196 55.5888 23.7545 55.4993 24.0596 55.3432C24.3648 55.187 24.6333 54.9678 24.8474 54.7C25.0615 54.4321 25.2162 54.1218 25.3014 53.7895C25.3866 53.4573 25.4003 53.1107 25.3416 52.7727C25.3224 52.5106 25.2507 52.2551 25.1307 52.0214C25.0107 51.7876 24.8449 51.5805 24.6432 51.4122C24.4415 51.244 24.2081 51.1181 23.9567 51.0422C23.7054 50.9662 23.4413 50.9416 23.1803 50.97C22.5827 50.9943 22.0152 51.2394 21.5875 51.658C21.1598 52.0765 20.9023 52.6387 20.8646 53.2362C20.8506 53.8424 21.0744 54.43 21.488 54.8729C21.9017 55.3158 22.4722 55.5788 23.0773 55.6056ZM23.0759 55.6056C22.4707 55.5788 21.9002 55.3157 21.4865 54.8728C21.0729 54.4299 20.8491 53.8423 20.8631 53.2362C20.9008 52.6387 21.1583 52.0765 21.586 51.6579C22.0137 51.2394 22.5812 50.9942 23.1788 50.9699C23.4398 50.9416 23.7039 50.9661 23.9552 51.0421C24.2066 51.1181 24.4401 51.244 24.6418 51.4122C24.8435 51.5804 25.0092 51.7876 25.1292 52.0213C25.2492 52.2551 25.3209 52.5106 25.3401 52.7727C25.3988 53.1106 25.3852 53.4572 25.3 53.7895C25.2148 54.1218 25.06 54.4321 24.8459 54.6999C24.6318 54.9678 24.3633 55.187 24.0581 55.3431C23.753 55.4993 23.4182 55.5887 23.0759 55.6056Z" stroke="#2E5235"/>
</svg>
