<svg width="41" height="80" viewBox="0 0 41 80" fill="none" xmlns="http://www.w3.org/2000/svg">
<path d="M20.956 77.6118L21.0474 76.7179C21.1342 75.5219 21.0807 74.3116 20.8875 73.1101C19.4792 64.3559 11.1129 57.9745 2.20086 58.857L2.10949 59.7509C2.02273 60.9469 2.07616 62.1572 2.26944 63.3587C3.67772 72.1129 12.044 78.4943 20.956 77.6118ZM20.956 77.6118L21.8795 77.7514C23.1129 77.9036 24.3533 77.9195 25.5766 77.7984C34.488 76.9157 40.5704 69.1038 39.1619 60.3501L38.2385 60.2105C37.0051 60.0583 35.7647 60.0424 34.5414 60.1635C25.6299 61.0462 19.5476 68.8581 20.956 77.6118ZM20.6814 59.6036L20.7728 58.7097C20.8595 57.5137 20.8061 56.3033 20.6128 55.1019C19.2045 46.3476 10.8382 39.9663 1.92621 40.8488L1.83484 41.7427C1.74807 42.9386 1.80151 44.149 1.99478 45.3505C3.40307 54.1047 11.7693 60.486 20.6814 59.6036ZM20.6814 59.6036L21.6048 59.7432C22.8383 59.8953 24.0786 59.9113 25.3019 59.7901C34.2134 58.9074 40.2958 51.0956 38.8873 42.3419L37.9638 42.2023C36.7304 42.0501 35.4901 42.0341 34.2667 42.1553C25.3553 43.038 19.2729 50.8499 20.6814 59.6036ZM20.4067 41.5953L20.4981 40.7014C20.5849 39.5055 20.5314 38.2951 20.3382 37.0937C18.9299 28.3394 10.5636 21.9581 1.65155 22.8405L1.56019 23.7345C1.47342 24.9304 1.52685 26.1408 1.72013 27.3422C3.12842 36.0965 11.4947 42.4778 20.4067 41.5953ZM20.4067 41.5953L21.3302 41.735C22.5636 41.8871 23.8039 41.9031 25.0273 41.7819C33.9387 40.8992 40.0211 33.0874 38.6126 24.3337L37.6892 24.194C36.4557 24.0419 35.2154 24.0259 33.9921 24.1471C25.0806 25.0298 18.9982 32.8416 20.4067 41.5953ZM19.8005 1.84925C27.0984 7.41554 28.713 17.4513 23.4074 24.2653C22.6791 25.2005 21.8399 26.0452 20.9065 26.7833L20.1884 27.3163C12.8911 21.7504 11.2765 11.7146 16.5822 4.90069C17.4925 3.7316 18.5761 2.70418 19.8005 1.84925Z" stroke="#2E5235" stroke-width="3" stroke-linecap="round"/>
</svg>
