<svg width="67" height="67" viewBox="0 0 67 67" fill="none" xmlns="http://www.w3.org/2000/svg">
<path d="M26.1738 39.9936C26.4578 40.2778 26.6173 40.6631 26.6173 41.0649C26.6173 41.4667 26.4578 41.8521 26.1738 42.1363L9.11351 59.1984C8.97269 59.3391 8.80555 59.4507 8.62161 59.5268C8.43767 59.6029 8.24054 59.642 8.04148 59.6419C7.63947 59.6417 7.25399 59.4819 6.96985 59.1975C6.68571 58.9131 6.52618 58.5275 6.52636 58.1254C6.52654 57.7234 6.68641 57.338 6.9708 57.0538L24.0311 39.9936C24.3153 39.7095 24.7006 39.55 25.1024 39.55C25.5042 39.55 25.8896 39.7095 26.1738 39.9936ZM65.7202 58.1811C65.6432 58.4315 65.5027 58.6576 65.3122 58.8375C65.1218 59.0174 64.888 59.1449 64.6336 59.2075C64.3792 59.2701 64.113 59.2657 63.8608 59.1947C63.6086 59.1237 63.3792 58.9886 63.1948 58.8025L58.0512 53.6588L55.2567 56.4551L60.4023 61.6026C60.5869 61.7876 60.7205 62.0172 60.7902 62.2691C60.8599 62.521 60.8632 62.7866 60.7999 63.0402C60.7366 63.2938 60.6088 63.5267 60.4289 63.7163C60.249 63.9059 60.0232 64.0458 59.7733 64.1223C58.847 64.4028 57.8841 64.5439 56.9163 64.541C53.9533 64.541 50.8974 63.2717 48.5974 60.9717C46.3979 58.7722 45.121 55.9 45.0319 53.0033L35.1084 43.0779C34.9855 43.0098 34.8726 42.925 34.773 42.8259L33.7178 41.7706C33.3195 43.0886 32.6002 44.2871 31.6243 45.2585L13.1583 63.7245C11.692 65.2078 9.71621 66.0775 7.63199 66.157H7.34781C6.38001 66.1668 5.41995 65.9838 4.52354 65.6189C3.62714 65.2539 2.8123 64.7143 2.12648 64.0314C-0.827092 61.0778 -0.686897 56.1293 2.44097 53.0014L20.907 34.5354C21.8783 33.5605 23.0759 32.8413 24.3929 32.442L23.3414 31.3905C23.2423 31.2909 23.1575 31.1781 23.0895 31.0552L13.1337 21.0975C10.2389 21.0104 7.36865 19.7334 5.17668 17.5339C2.12459 14.478 0.887459 10.0941 2.02418 6.35616C2.10056 6.10589 2.24043 5.87967 2.43018 5.69949C2.61993 5.51932 2.85309 5.39135 3.10698 5.32802C3.36086 5.26469 3.62681 5.26817 3.87895 5.33812C4.13109 5.40807 4.36083 5.5421 4.5458 5.72717L9.69134 10.8708L12.4877 8.0726L7.33455 2.93843C7.14947 2.75345 7.01544 2.52372 6.94549 2.27158C6.87554 2.01944 6.87206 1.75349 6.93539 1.4996C6.99872 1.24572 7.1267 1.01256 7.30687 0.822808C7.48704 0.633058 7.71327 0.493185 7.96353 0.416803C11.6977 -0.719916 16.0854 0.513425 19.1413 3.56741C21.3427 5.76696 22.6196 8.63907 22.7087 11.5377L35.9704 24.7994L56.3953 4.36122C56.5001 4.25367 56.6209 4.16293 56.7534 4.09219L63.82 0.303132C64.1063 0.150883 64.4339 0.0944606 64.7546 0.142153C65.0753 0.189846 65.3723 0.339139 65.6019 0.5681C65.8315 0.797061 65.9816 1.09362 66.0302 1.41421C66.0787 1.7348 66.0232 2.06252 65.8718 2.34923L62.0676 9.41583C61.9975 9.54614 61.9088 9.6655 61.8042 9.7701L41.3717 30.2026L54.605 43.4359C57.4998 43.5231 60.3682 44.8 62.562 46.9995C65.6217 50.0554 66.8569 54.4413 65.7202 58.1735V58.1811ZM38.1358 37.3185L28.8526 28.0353L26.6 30.286L35.8832 39.5692L38.1358 37.3185ZM35.0743 29.9677L36.1977 31.0912L59.5005 7.78842L60.8077 5.35964L58.377 6.66497L35.0743 29.9677ZM14.8331 18.5172L24.4554 28.1395L27.7784 24.8165C28.0626 24.5325 28.448 24.3729 28.8498 24.3729C29.2516 24.3729 29.6369 24.5325 29.9211 24.8165L32.9297 27.825L33.8182 26.9365L20.1188 13.2371C19.9719 13.0902 19.8567 12.9147 19.7804 12.7214C19.7042 12.5282 19.6685 12.3213 19.6755 12.1136C19.7532 9.82504 18.7775 7.49098 16.9967 5.71202C15.5919 4.28108 13.7523 3.3563 11.7659 3.08241L15.6951 7.01356C15.9791 7.29777 16.1387 7.68312 16.1387 8.08492C16.1387 8.48671 15.9791 8.87207 15.6951 9.15627L10.7542 14.0972C10.47 14.3812 10.0846 14.5408 9.68282 14.5408C9.28102 14.5408 8.89567 14.3812 8.61146 14.0972L4.6841 10.1699C4.95878 12.1533 5.88047 13.9907 7.30613 15.3969C9.08699 17.1758 11.4192 18.1515 13.704 18.0738H13.757C13.9567 18.0732 14.1546 18.112 14.3393 18.1881C14.524 18.2642 14.6918 18.376 14.8331 18.5172ZM31.0143 39.0671L27.0964 35.1511C26.3518 35.0971 25.6044 35.2057 24.9059 35.4694C24.2075 35.7331 23.5747 36.1455 23.0516 36.6781L4.58369 55.1498C2.638 57.0955 2.49971 60.1211 4.27109 61.8943C4.69804 62.3144 5.20774 62.641 5.76777 62.8533C6.3278 63.0656 6.92589 63.1591 7.524 63.1277C8.84136 63.0742 10.089 62.5215 11.0137 61.5817L29.4816 43.1195C30.4214 42.1948 30.9741 40.9472 31.0276 39.6298C31.0348 39.4422 31.0303 39.2542 31.0143 39.0671ZM63.0527 54.3693C62.7779 52.3852 61.8539 50.5479 60.425 49.1441C58.6441 47.3633 56.312 46.3895 54.0291 46.4672C53.8214 46.4742 53.6145 46.4385 53.4213 46.3623C53.228 46.286 53.0525 46.1708 52.9056 46.0239L39.229 32.3472L38.3404 33.2358L41.3509 36.2481C41.6349 36.5323 41.7944 36.9176 41.7944 37.3194C41.7944 37.7212 41.6349 38.1066 41.3509 38.3908L38.0297 41.7119L47.618 51.3039C47.7647 51.4506 47.8797 51.6258 47.956 51.8187C48.0322 52.0116 48.0681 52.2181 48.0613 52.4255C47.9855 54.7141 48.9612 57.0481 50.7402 58.829C52.1455 60.2588 53.9849 61.1828 55.971 61.4567L52.0417 57.5274C51.9008 57.3867 51.789 57.2195 51.7127 57.0355C51.6364 56.8515 51.5972 56.6543 51.5972 56.4551C51.5972 56.256 51.6364 56.0587 51.7127 55.8747C51.789 55.6908 51.9008 55.5236 52.0417 55.3828L56.9826 50.4419C57.2668 50.1579 57.6522 49.9983 58.054 49.9983C58.4558 49.9983 58.8411 50.1579 59.1254 50.4419L63.0527 54.3693Z" fill="#2E5235"/>
</svg>
