<svg width="36" height="68" viewBox="0 0 36 68" fill="none" xmlns="http://www.w3.org/2000/svg">
<path d="M9.08333 2H26.7917M3.08925 28.6034L6.37852 23.3795C9.26303 18.7984 11.1171 13.645 11.8123 8.27625L12.625 2H23.25L23.9848 7.87816C24.6673 13.3382 26.5316 18.5839 29.4479 23.25L32.7983 28.6106C33.5019 29.7364 33.875 31.0372 33.875 32.3648V58.6667C33.875 62.5787 30.7037 65.75 26.7917 65.75H9.08333C5.17132 65.75 2 62.5787 2 58.6667V32.3776C2 31.042 2.37761 29.7336 3.08925 28.6034ZM2 40.9583L4.2252 41.7001C9.48589 43.4536 15.2721 42.5147 19.7083 39.1875L20.4561 38.6266C24.1233 35.8763 28.9607 35.3057 33.1439 37.0793L33.875 37.4167V58.6667C33.875 62.5787 30.7037 65.75 26.7917 65.75H9.08333C5.17132 65.75 2 62.5787 2 58.6667V40.9583Z" stroke="#2E5235" stroke-width="4" stroke-linecap="round"/>
</svg>
